<svg width="122" height="45" viewBox="0 0 122 45" fill="none" xmlns="http://www.w3.org/2000/svg">
<path d="M3.98659 37.3719H0.96875V43.9719H2.83524V42.2465H3.98497C5.78659 42.2465 6.91686 41.3124 6.91686 39.8141C6.91686 38.3157 5.78497 37.3719 3.98497 37.3719H3.98659ZM3.87307 40.7757H2.83524V38.8427H3.87307C4.64659 38.8427 5.03253 39.2011 5.03253 39.8141C5.03253 40.427 4.64659 40.7757 3.87307 40.7757ZM26.6423 37.2405C24.5309 37.2405 22.9742 38.6919 22.9742 40.6719C22.9742 42.6519 24.5293 44.1032 26.6423 44.1032C28.7552 44.1032 30.3104 42.6503 30.3104 40.6719C30.3104 38.6935 28.7552 37.2405 26.6423 37.2405ZM26.6423 42.5578C25.6433 42.5578 24.8601 41.8135 24.8601 40.6719C24.8601 39.5303 25.6433 38.7859 26.6423 38.7859C27.6412 38.7859 28.4244 39.5303 28.4244 40.6719C28.4244 41.8135 27.6412 42.5578 26.6423 42.5578ZM48.3282 40.6719C48.3282 41.8038 49.0823 42.5578 50.1671 42.5578C50.7996 42.5578 51.3071 42.2838 51.7223 41.7843L52.9109 42.8595C52.2704 43.6605 51.2893 44.1049 50.0731 44.1049C47.9796 44.1049 46.4423 42.6811 46.4423 40.6735C46.4423 38.666 47.9796 37.2422 50.0731 37.2422C51.2893 37.2422 52.2704 37.6849 52.9109 38.486L51.7223 39.5611C51.3071 39.0616 50.7979 38.7876 50.1671 38.7876C49.0823 38.7876 48.3282 39.5416 48.3282 40.6735V40.6719ZM70.6271 40.6719C70.6271 41.8038 71.3812 42.5578 72.466 42.5578C73.0969 42.5578 73.606 42.2838 74.0212 41.7843L75.2098 42.8595C74.5693 43.6605 73.5882 44.1049 72.372 44.1049C70.2785 44.1049 68.7428 42.6811 68.7428 40.6735C68.7428 38.666 70.2801 37.2422 72.372 37.2422C73.5882 37.2422 74.5693 37.6849 75.2098 38.486L74.0212 39.5611C73.606 39.0616 73.0969 38.7876 72.466 38.7876C71.3812 38.7876 70.6271 39.5416 70.6271 40.6735V40.6719ZM96.1596 37.3719H97.9142V43.9719H96.0752V40.1059L93.359 43.9719H91.5963V37.3719H93.4352V41.2476L96.1596 37.3719ZM121.193 37.3719V43.9719H119.354V40.1059L116.637 43.9719H114.875V37.3719H116.714V41.2476L119.438 37.3719H121.191H121.193ZM114.224 8.08865L118.716 1.15622C118.878 0.906487 119.213 0.835134 119.462 0.997296C119.712 1.15946 119.783 1.49351 119.621 1.74324L115.129 8.67568C115.025 8.83459 114.854 8.92216 114.675 8.92216C114.575 8.92216 114.473 8.89459 114.382 8.83459C114.132 8.67243 114.061 8.33838 114.223 8.08865H114.224ZM105.957 8.1L110.214 1.16756C110.37 0.91297 110.702 0.833511 110.957 0.990808C111.211 1.14648 111.291 1.47892 111.134 1.73351L106.877 8.66595C106.775 8.83135 106.598 8.92378 106.416 8.92378C106.321 8.92378 106.223 8.89783 106.134 8.84432C105.88 8.68865 105.8 8.35622 105.957 8.10162V8.1ZM108.711 8.1L112.968 1.16756C113.123 0.91297 113.456 0.833511 113.71 0.990808C113.965 1.14648 114.044 1.47892 113.887 1.73351L109.63 8.66595C109.528 8.83135 109.351 8.92378 109.17 8.92378C109.073 8.92378 108.977 8.89783 108.888 8.84432C108.633 8.68865 108.554 8.35622 108.711 8.10162V8.1ZM111.464 8.1L115.721 1.16756C115.877 0.91297 116.209 0.833511 116.464 0.990808C116.718 1.14648 116.798 1.47892 116.641 1.73351L112.384 8.66595C112.282 8.83135 112.105 8.92378 111.923 8.92378C111.828 8.92378 111.729 8.89783 111.641 8.84432C111.387 8.68865 111.307 8.35622 111.464 8.10162V8.1ZM91.9271 30.5805C91.6287 30.5805 91.3871 30.3389 91.3871 30.0405V1.44973C91.3871 1.15135 91.6287 0.909727 91.9271 0.909727C92.2255 0.909727 92.4671 1.15135 92.4671 1.44973V30.0405C92.4671 30.3389 92.2255 30.5805 91.9271 30.5805ZM94.0693 30.0405V1.44973C94.0693 1.15135 94.3109 0.909727 94.6093 0.909727C94.9077 0.909727 95.1493 1.15135 95.1493 1.44973V30.0405C95.1493 30.3389 94.9077 30.5805 94.6093 30.5805C94.3109 30.5805 94.0693 30.3389 94.0693 30.0405ZM96.7514 30.0405V1.44973C96.7514 1.15135 96.9931 0.909727 97.2915 0.909727C97.5898 0.909727 97.8315 1.15135 97.8315 1.44973V30.0405C97.8315 30.3389 97.5898 30.5805 97.2915 30.5805C96.9931 30.5805 96.7514 30.3389 96.7514 30.0405ZM112.997 30.613C112.698 30.613 112.408 30.4622 112.244 30.1881L104.795 17.7924H100.514V18.2173H103.65C103.96 18.2173 104.247 18.3811 104.404 18.647L110.714 29.2897C110.96 29.7065 110.824 30.2449 110.407 30.4913C110.268 30.5741 110.114 30.6146 109.961 30.6146C109.661 30.6146 109.369 30.4605 109.206 30.1849L103.15 19.9719H100.514V30.0422C100.514 30.3405 100.272 30.5822 99.9736 30.5822C99.6752 30.5822 99.4336 30.3405 99.4336 30.0422V1.45135C99.4336 1.15297 99.6752 0.911351 99.9736 0.911351C100.272 0.911351 100.514 1.15297 100.514 1.45135V11.6838H108.573C108.878 11.6838 109.162 11.8427 109.321 12.1022L110.973 14.7973C110.981 14.8103 110.989 14.8249 110.997 14.8395L119.816 29.2832C120.069 29.6968 119.937 30.2368 119.524 30.4881C119.381 30.5757 119.224 30.6162 119.068 30.6162C118.773 30.6162 118.484 30.467 118.319 30.1962L109.476 15.7135C109.468 15.7005 109.46 15.6876 109.454 15.6746L108.082 13.4368H100.512V13.8616H106.93C107.237 13.8616 107.521 14.0205 107.68 14.2832L109.111 16.6362C109.118 16.6476 109.124 16.6589 109.131 16.6703L116.78 29.2849C117.031 29.6984 116.898 30.2384 116.485 30.4897C116.342 30.5757 116.187 30.6162 116.031 30.6162C115.734 30.6162 115.445 30.4654 115.28 30.1946L107.611 17.5492C107.605 17.5395 107.598 17.5281 107.594 17.5184L106.437 15.6178H100.512V16.0427H105.289C105.597 16.0427 105.881 16.2032 106.04 16.4676L107.251 18.4784L113.746 29.2881C113.996 29.7032 113.861 30.2416 113.446 30.4913C113.305 30.5757 113.149 30.6162 112.995 30.6162L112.997 30.613ZM65.2125 5.87513C64.8736 5.52973 64.8785 4.97513 65.2239 4.63459C68.2239 1.68811 72.732 0 77.592 0C82.452 0 86.3147 1.4773 89.2466 4.27459C89.5969 4.60865 89.6098 5.16324 89.2758 5.51351C88.9417 5.86378 88.3871 5.87676 88.0352 5.5427C85.4374 3.06324 81.826 1.75297 77.592 1.75297C73.3579 1.75297 69.1271 3.25946 66.4531 5.88648C66.2828 6.05351 66.0606 6.13783 65.8385 6.13783C65.6163 6.13783 65.3844 6.05027 65.2125 5.87513ZM86.7152 7.52919C84.4012 5.17784 81.3769 3.98594 77.7282 3.98594C73.8623 3.98594 70.4017 5.34648 68.232 7.71892C68.2223 7.73027 68.2109 7.74162 68.1996 7.75135C68.159 7.79189 68.1039 7.83405 68.052 7.86811C67.9028 7.97189 67.7277 8.02378 67.5525 8.02378C67.3287 8.02378 67.1033 7.93784 66.9331 7.76757C66.5909 7.4254 66.5909 6.87081 66.9331 6.52703C66.9525 6.50757 66.9752 6.48811 66.9996 6.46865C69.5033 3.77513 73.4082 2.23135 77.7298 2.23135C81.8082 2.23135 85.3482 3.6373 87.9671 6.29675C88.306 6.64216 88.3028 7.19675 87.9574 7.53729C87.612 7.87621 87.0574 7.87297 86.7169 7.52757L86.7152 7.52919ZM85.392 9.51081C83.4006 7.32649 80.8677 6.22054 77.8644 6.22054C74.5239 6.22054 71.6536 7.44 69.9898 9.56757C69.9655 9.6 69.9379 9.62919 69.9087 9.65676C69.8147 9.74757 69.6915 9.82054 69.5633 9.8627C69.4677 9.89675 69.3671 9.91459 69.2666 9.91459C69.0428 9.91459 68.8174 9.82865 68.6471 9.65838C68.305 9.31622 68.305 8.76162 68.6471 8.41784C68.665 8.4 68.6844 8.38216 68.7055 8.36432C70.7147 5.88486 74.0423 4.46594 77.8644 4.46594C81.3817 4.46594 84.3493 5.76486 86.6877 8.32865C87.0136 8.68703 86.9893 9.24162 86.6309 9.56757C86.2725 9.89351 85.7179 9.86919 85.392 9.51081ZM85.2996 11.5995C85.1358 11.7357 84.9379 11.8022 84.7401 11.8022C84.4888 11.8022 84.239 11.6935 84.0655 11.4859C82.3709 9.44594 80.3877 8.45352 78.0006 8.45352C75.2374 8.45352 72.9039 9.55135 71.7574 11.3903C71.5969 11.6465 71.3163 11.8038 71.0131 11.8038H70.9806C70.4958 11.8038 70.1033 11.4114 70.1033 10.9265C70.1033 10.6735 70.2104 10.4449 70.3823 10.2843C71.8839 8.03513 74.712 6.70054 77.999 6.70054C80.8985 6.70054 83.3941 7.93459 85.4131 10.367C85.7228 10.74 85.6709 11.293 85.2979 11.6011L85.2996 11.5995ZM85.2996 19.8892C85.6725 20.1989 85.7228 20.7519 85.4147 21.1232C83.3958 23.5557 80.9001 24.7897 78.0006 24.7897C75.1012 24.7897 72.2925 23.58 70.7309 21.553C70.6077 21.3924 70.4877 21.2238 70.3758 21.0551C70.1098 20.6497 70.2233 20.1065 70.6271 19.8405C71.0325 19.5746 71.5758 19.6881 71.8417 20.0919C71.9293 20.2249 72.0233 20.3562 72.119 20.4827C73.3498 22.0816 75.5488 23.0351 77.999 23.0351C80.4493 23.0351 82.3693 22.0427 84.0639 20.0027C84.3736 19.6297 84.9266 19.5795 85.2979 19.8876L85.2996 19.8892ZM67.0352 19.9281C67.392 19.6022 67.9466 19.6265 68.2741 19.9849C68.2741 19.9849 69.8455 21.707 69.9039 21.7703C69.9169 21.7849 69.9331 21.8027 69.9444 21.8189C70.0725 21.9795 70.2169 22.1449 70.3839 22.3265C72.0914 24.1703 74.8871 25.2713 77.8644 25.2713C80.8417 25.2713 83.3844 24.1703 85.3742 21.9973C85.7017 21.6405 86.2563 21.6162 86.6131 21.9438C86.9698 22.2713 86.9942 22.8259 86.6666 23.1827C84.3298 25.7319 81.3687 27.0259 77.8628 27.0259C74.3569 27.0259 71.1282 25.7157 69.0963 23.52C68.9082 23.3157 68.7428 23.1259 68.592 22.9395C68.5044 22.8438 68.1866 22.4951 66.9769 21.1703C66.6509 20.8119 66.6752 20.2589 67.0336 19.9314L67.0352 19.9281ZM64.7909 19.9865C64.7909 19.9865 67.9644 23.4649 68.052 23.5605C68.2433 23.773 68.4396 23.9757 68.6617 24.1897C70.8525 26.2946 74.1558 27.5011 77.725 27.5011C81.2942 27.5011 84.3655 26.3205 86.6763 23.9935C87.0169 23.6497 87.5731 23.6481 87.9169 23.9886C88.2606 24.3292 88.2623 24.8854 87.9217 25.2292C85.3077 27.8627 81.7823 29.2557 77.7266 29.2557C73.6709 29.2557 69.9623 27.8708 67.4471 25.4546C67.1925 25.2097 66.9671 24.9762 66.7563 24.7427C66.6687 24.647 66.2001 24.1346 63.4936 21.1686C63.1677 20.8103 63.192 20.2557 63.5504 19.9297C63.9071 19.6038 64.4633 19.6281 64.7893 19.9865H64.7909ZM77.5904 31.487C73.0401 31.487 68.7396 29.9903 65.7898 27.3795C65.4882 27.1135 65.1996 26.8362 64.9304 26.5557C64.9206 26.5443 64.8915 26.5151 60.0136 21.1686C59.6877 20.8103 59.712 20.2573 60.0704 19.9297C60.4271 19.6038 60.9817 19.6281 61.3093 19.9865C62.9617 21.7978 66.1125 25.2503 66.2033 25.3492C66.432 25.5859 66.6866 25.8308 66.9525 26.0659C69.5861 28.3962 73.4633 29.7324 77.5904 29.7324C81.7174 29.7324 85.3855 28.44 87.9801 25.9946C88.332 25.6622 88.8866 25.6784 89.219 26.0303C89.5515 26.3822 89.5352 26.9368 89.1817 27.2692C86.2563 30.0276 82.2477 31.4854 77.5904 31.4854V31.487ZM42.6169 15.7427C42.6169 20.3059 45.6006 23.3724 50.0423 23.3724C52.4147 23.3724 54.6023 22.4254 56.2044 20.7065C56.4071 20.4892 56.7493 20.4762 56.9666 20.6789C57.1839 20.8816 57.1969 21.2238 56.9942 21.4411C55.186 23.3822 52.7179 24.4508 50.0423 24.4508C45.0347 24.4508 41.5385 20.8703 41.5385 15.7427C41.5385 10.6151 45.0363 7.0346 50.0423 7.0346C52.932 7.0346 55.5687 8.29297 57.466 10.5778C57.6558 10.8065 57.625 11.147 57.3963 11.3384C57.1677 11.5281 56.8271 11.4973 56.6358 11.267C54.9477 9.23351 52.606 8.11297 50.0423 8.11297C45.6006 8.11297 42.6169 11.1795 42.6169 15.7427ZM56.7606 8.23135C56.7412 8.21838 56.7217 8.20541 56.7039 8.18919C54.9055 6.67135 52.4909 5.83622 49.906 5.83622C44.0115 5.83622 39.8942 9.90973 39.8942 15.7427C39.8942 21.5757 44.0115 25.6508 49.906 25.6508C53.0017 25.6508 55.7974 24.5043 57.7758 22.4222C57.9817 22.2065 58.3223 22.1984 58.5379 22.4027C58.7536 22.6086 58.7633 22.9492 58.5574 23.1649C56.3731 25.4627 53.3001 26.7292 49.906 26.7292C43.3758 26.7292 38.8158 22.2113 38.8158 15.7427C38.8158 9.27405 43.3774 4.75621 49.906 4.75621C52.7325 4.75621 55.3823 5.67405 57.3736 7.3427C58.0466 7.80162 60.2358 10.127 60.6087 10.5762C60.7985 10.8049 60.7677 11.1454 60.539 11.3368C60.3104 11.5265 59.9698 11.4957 59.7785 11.2654C59.2839 10.6686 57.1985 8.51189 56.7606 8.22973V8.23135ZM63.7514 10.5746C63.9412 10.8032 63.9104 11.1438 63.6817 11.3351C63.4531 11.5249 63.1125 11.4941 62.9212 11.2654C62.6374 10.9232 59.326 7.36054 58.932 7.02486C58.9077 7.00702 58.8833 6.98919 58.8606 6.96649C56.5904 4.76919 53.3617 3.55946 49.7698 3.55946C46.1779 3.55946 43.0093 4.77568 40.7212 6.9827C38.4315 9.19297 37.1715 12.3032 37.1715 15.7443C37.1715 19.1854 38.4315 22.2973 40.7212 24.5059C43.0077 26.713 46.2217 27.9292 49.7698 27.9292C53.5887 27.9292 56.9893 26.5832 59.3471 24.1395C59.5531 23.9254 59.8952 23.9189 60.1093 24.1249C60.3233 24.3324 60.3298 24.673 60.1239 24.8886C57.5617 27.5449 53.8855 29.0076 49.7698 29.0076C41.845 29.0076 36.0914 23.4292 36.0914 15.7427C36.0914 8.05621 41.8433 2.47784 49.7698 2.47784C53.6423 2.47784 57.1385 3.79621 59.6115 6.18973C60.3152 6.8027 63.7223 10.5389 63.7514 10.5746ZM33.3687 15.7427C33.3687 6.73784 40.2087 0.20108 49.6336 0.20108C54.4547 0.20108 58.8817 1.9427 61.786 4.97838C61.7974 4.98973 61.8104 5.00108 61.8201 5.01243L66.8763 10.5519C67.0774 10.7724 67.0612 11.113 66.8423 11.3141C66.6217 11.5151 66.2812 11.4989 66.0801 11.28L61.0482 5.7681C61.0482 5.7681 61.0352 5.75513 61.0304 5.74865C58.3287 2.90756 54.1758 1.27784 49.6352 1.27784C40.8363 1.27784 34.4487 7.36054 34.4487 15.7411C34.4487 24.1216 40.8347 30.2043 49.6352 30.2043C54.1093 30.2043 58.2217 28.6184 60.9185 25.8535C61.1277 25.6395 61.4682 25.6362 61.6823 25.8438C61.8963 26.0514 61.8996 26.3935 61.692 26.6076C58.7942 29.58 54.4012 31.2843 49.6369 31.2843C40.212 31.2843 33.372 24.7476 33.372 15.7427H33.3687ZM22.2201 2.18108C22.0239 1.73838 22.225 1.22108 22.6677 1.02486C23.1104 0.828645 23.6277 1.02973 23.8239 1.47243L36.1952 29.4178C36.3915 29.8605 36.1904 30.3778 35.7477 30.5741C35.6325 30.6243 35.5109 30.6486 35.3925 30.6486C35.0569 30.6486 34.7358 30.4541 34.5898 30.1265L22.2185 2.18108H22.2201ZM33.4125 29.4178C33.6087 29.8605 33.4093 30.3778 32.965 30.5741C32.8498 30.6243 32.7282 30.6486 32.6098 30.6486C32.2742 30.6486 31.9531 30.4541 31.8071 30.1265L19.4358 2.18108C19.2396 1.73838 19.439 1.22108 19.8833 1.02486C20.326 0.828645 20.8433 1.02973 21.0396 1.47243L33.4109 29.4178H33.4125ZM16.6563 2.18108C16.4601 1.73838 16.6596 1.22108 17.1039 1.02486C17.5466 0.828645 18.0639 1.02973 18.2601 1.47243L30.6315 29.4178C30.8277 29.8605 30.6282 30.3778 30.1839 30.5741C30.0687 30.6243 29.9471 30.6486 29.8287 30.6486C29.4931 30.6486 29.172 30.4541 29.026 30.1265L16.6547 2.18108H16.6563ZM23.986 25.0232H13.1244L11.0147 30.2416C10.9304 30.4508 10.7277 30.5789 10.5136 30.5789C10.4455 30.5789 10.3774 30.566 10.3109 30.54C10.0352 30.4281 9.90064 30.1135 10.0125 29.8378L12.2585 24.2838C12.3412 24.0795 12.539 23.9465 12.7579 23.9465H23.506L23.1039 23.0384H11.3115L8.25794 30.2514C8.17037 30.4573 7.97091 30.5805 7.7601 30.5805C7.69037 30.5805 7.61902 30.5676 7.54929 30.5384C7.27524 30.4216 7.14713 30.1054 7.26226 29.8313L10.4552 22.2892C10.5396 22.0897 10.7358 21.96 10.9515 21.96H22.6239L22.2217 21.0519H9.50172L5.50443 30.2578C5.41686 30.4605 5.2174 30.5822 5.00983 30.5822C4.93848 30.5822 4.86551 30.5676 4.79578 30.5368C4.52335 30.4184 4.39686 30.1005 4.51524 29.8265L8.65361 20.2962C8.73956 20.0984 8.93416 19.9719 9.14821 19.9719H21.745L21.3428 19.0638H7.69524L2.75253 30.2611C2.66334 30.4622 2.46551 30.5822 2.25956 30.5822C2.18659 30.5822 2.11199 30.5676 2.04226 30.5368C1.76983 30.4168 1.64659 30.0973 1.76659 29.8249L6.85037 18.3065C6.93632 18.1103 7.13091 17.9854 7.34334 17.9854H20.8644L13.8704 2.18594C13.6742 1.74324 13.8736 1.22594 14.3179 1.02973C14.7606 0.83351 15.2779 1.03459 15.4742 1.4773L27.8455 29.4227C28.0417 29.8654 27.8406 30.3827 27.3979 30.5789C27.2828 30.6292 27.1612 30.6535 27.0428 30.6535C26.7071 30.6535 26.386 30.4589 26.2401 30.1314L23.9812 25.0281L23.986 25.0232Z" fill="#2D509F"/>
</svg>
