<svg width="48" height="48" viewBox="0 0 48 48" fill="none" xmlns="http://www.w3.org/2000/svg">
<rect width="48" height="48" rx="24" fill="white"/>
<path d="M19.7656 11.4467C19.7656 12.3608 20.1288 13.2375 20.7751 13.8839C21.4215 14.5303 22.2982 14.8934 23.2123 14.8934C24.1264 14.8934 25.0031 14.5303 25.6495 13.8839C26.2959 13.2375 26.659 12.3608 26.659 11.4467C26.659 10.5326 26.2959 9.65589 25.6495 9.00951C25.0031 8.36313 24.1264 8 23.2123 8C22.2982 8 21.4215 8.36313 20.7751 9.00951C20.1288 9.65589 19.7656 10.5326 19.7656 11.4467Z" stroke="#222222" stroke-width="2" stroke-linecap="round" stroke-linejoin="round"/>
<path d="M24.2132 14.8936C24.2132 14.3413 23.7655 13.8936 23.2132 13.8936C22.6609 13.8936 22.2132 14.3413 22.2132 14.8936H24.2132ZM23.2132 28.6803H22.2132C22.2132 29.2326 22.6609 29.6803 23.2132 29.6803V28.6803ZM30.1066 28.6803L30.8875 28.0556C30.6977 27.8184 30.4104 27.6803 30.1066 27.6803V28.6803ZM36.2191 37.9218L36.8438 38.7026L38.4056 37.4532L37.7809 36.6724L36.2191 37.9218ZM23.2132 20.7869C22.6609 20.7869 22.2132 21.2347 22.2132 21.7869C22.2132 22.3392 22.6609 22.7869 23.2132 22.7869V20.7869ZM31.83 22.7869H32.83V20.7869H31.83V22.7869ZM16.7025 23.5725L17.6264 23.1899L16.8611 21.3421L15.9372 21.7247L16.7025 23.5725ZM27.4773 36.1498L28.0534 35.3324L26.4186 34.1802L25.8425 34.9976L27.4773 36.1498ZM22.2132 14.8936V28.6803H24.2132V14.8936H22.2132ZM23.2132 29.6803H30.1066V27.6803H23.2132V29.6803ZM29.3257 29.305L36.2191 37.9218L37.7809 36.6724L30.8875 28.0556L29.3257 29.305ZM23.2132 22.7869H31.83V20.7869H23.2132V22.7869ZM15.9372 21.7247C14.5591 22.2954 13.3327 23.1789 12.3548 24.3052L13.8651 25.6163C14.6396 24.7243 15.611 24.0245 16.7025 23.5725L15.9372 21.7247ZM12.3548 24.3052C11.377 25.4315 10.6746 26.7699 10.3031 28.2145L12.24 28.7126C12.5343 27.5685 13.0906 26.5084 13.8651 25.6163L12.3548 24.3052ZM10.3031 28.2145C9.93155 29.6591 9.90117 31.1703 10.2143 32.6286L12.1697 32.2087C11.9217 31.0537 11.9458 29.8568 12.24 28.7126L10.3031 28.2145ZM10.2143 32.6286C10.5275 34.087 11.1755 35.4525 12.1073 36.6172L13.6691 35.3678C12.9311 34.4453 12.4178 33.3638 12.1697 32.2087L10.2143 32.6286ZM12.1073 36.6172C13.0391 37.7819 14.2291 38.714 15.5831 39.3396L16.422 37.524C15.3495 37.0285 14.4071 36.2903 13.6691 35.3678L12.1073 36.6172ZM15.5831 39.3396C16.9371 39.9652 18.4181 40.2673 19.909 40.222L19.8483 38.2229C18.6674 38.2588 17.4944 38.0195 16.422 37.524L15.5831 39.3396ZM19.909 40.222C21.3999 40.1766 22.8599 39.7851 24.1734 39.0784L23.2257 37.3171C22.1854 37.8769 21.0291 38.187 19.8483 38.2229L19.909 40.222ZM24.1734 39.0784C25.4869 38.3716 26.618 37.369 27.4773 36.1498L25.8425 34.9976C25.162 35.9633 24.2661 36.7574 23.2257 37.3171L24.1734 39.0784Z" fill="#222222"/>
</svg>
