<svg width="48" height="48" viewBox="0 0 48 48" fill="none" xmlns="http://www.w3.org/2000/svg">
<rect width="48" height="48" rx="24" fill="white"/>
<path d="M27.9902 26.0889C27.2469 24.5756 26.0276 23.5745 24.3323 23.0856C22.637 22.5968 20.8848 22.353 19.0757 22.3541C17.2766 22.3541 15.5161 22.5979 13.794 23.0856C12.0708 23.5745 10.8599 24.5756 10.1612 26.0889H27.9902ZM8.00167 27.763C8.00167 25.3222 9.15288 23.5315 11.4553 22.3909C13.7577 21.2503 16.2978 20.68 19.0757 20.68C21.8536 20.68 24.3937 21.2503 26.6961 22.3909C28.9985 23.5315 30.1497 25.3222 30.1497 27.763H8.00167ZM8.00167 33.2992V31.6251H30.1497V33.2992H8.00167ZM33.4962 38.837V37.163H35.8399L38.1836 14.3704H23.0985L22.8725 12.6963H30.5984V6H32.2725V12.6963H40L37.4956 37.312C37.4331 37.7729 37.2333 38.1423 36.8963 38.4202C36.5592 38.6981 36.1602 38.837 35.6993 38.837H33.4962ZM9.03123 38.837C8.73883 38.837 8.49385 38.7383 8.29631 38.5407C8.09877 38.3432 8 38.0988 8 37.8075V37.163H30.1497V37.8075C30.1497 38.0988 30.051 38.3432 29.8534 38.5407C29.6559 38.7383 29.4115 38.837 29.1202 38.837H9.03123Z" fill="#222222"/>
</svg>
