<svg width="48" height="48" viewBox="0 0 48 48" fill="none" xmlns="http://www.w3.org/2000/svg">
<rect x="0.5" y="0.5" width="47" height="47" rx="1.5" stroke="white"/>
<path d="M11.1 11.1C9 13.22 9 16.61 9 23.4V24.6C9 31.38 9 34.77 11.1 36.9C13.22 39 16.61 39 23.4 39H24.6C31.38 39 34.77 39 36.9 36.9C39 34.78 39 31.39 39 24.6V23.4C39 16.62 39 13.23 36.9 11.1C34.78 9 31.39 9 24.6 9H23.4C16.62 9 13.23 9 11.1 11.1ZM14.06 18.13H17.5C17.61 23.85 20.13 26.27 22.13 26.77V18.13H25.36V23.06C27.33 22.85 29.41 20.6 30.11 18.12H33.33C33.0675 19.4038 32.5431 20.6197 31.7895 21.6916C31.0358 22.7636 30.0692 23.6685 28.95 24.35C30.1991 24.9714 31.3021 25.8507 32.1864 26.9298C33.0707 28.0089 33.7161 29.2632 34.08 30.61H30.53C29.77 28.24 27.87 26.4 25.36 26.15V30.61H24.96C18.12 30.61 14.22 25.93 14.06 18.13Z" fill="white"/>
</svg>
