<svg width="16" height="10" viewBox="0 0 16 10" fill="none" xmlns="http://www.w3.org/2000/svg">
<path d="M8.00033 3C7.46989 3 6.96118 3.21071 6.58611 3.58579C6.21104 3.96086 6.00033 4.46957 6.00033 5C6.00033 5.53043 6.21104 6.03914 6.58611 6.41421C6.96118 6.78929 7.46989 7 8.00033 7C8.53076 7 9.03947 6.78929 9.41454 6.41421C9.78961 6.03914 10.0003 5.53043 10.0003 5C10.0003 4.46957 9.78961 3.96086 9.41454 3.58579C9.03947 3.21071 8.53076 3 8.00033 3ZM8.00033 8.33333C7.11627 8.33333 6.26842 7.98214 5.6433 7.35702C5.01818 6.7319 4.66699 5.88406 4.66699 5C4.66699 4.11595 5.01818 3.2681 5.6433 2.64298C6.26842 2.01786 7.11627 1.66667 8.00033 1.66667C8.88438 1.66667 9.73223 2.01786 10.3573 2.64298C10.9825 3.2681 11.3337 4.11595 11.3337 5C11.3337 5.88406 10.9825 6.7319 10.3573 7.35702C9.73223 7.98214 8.88438 8.33333 8.00033 8.33333ZM8.00033 0C4.66699 0 1.82033 2.07333 0.666992 5C1.82033 7.92667 4.66699 10 8.00033 10C11.3337 10 14.1803 7.92667 15.3337 5C14.1803 2.07333 11.3337 0 8.00033 0Z" fill="white"/>
</svg>
