<svg width="48" height="48" viewBox="0 0 48 48" fill="none" xmlns="http://www.w3.org/2000/svg">
<rect x="0.5" y="0.5" width="47" height="47" rx="1.5" stroke="white"/>
<path d="M24 9C15.72 9 9 15.72 9 24C9 32.28 15.72 39 24 39C32.28 39 39 32.28 39 24C39 15.72 32.28 9 24 9ZM30.96 19.2C30.735 21.57 29.76 27.33 29.265 29.985C29.055 31.11 28.635 31.485 28.245 31.53C27.375 31.605 26.715 30.96 25.875 30.405C24.555 29.535 23.805 28.995 22.53 28.155C21.045 27.18 22.005 26.64 22.86 25.77C23.085 25.545 26.925 22.05 27 21.735C27.0104 21.6873 27.009 21.6378 26.996 21.5907C26.9829 21.5437 26.9585 21.5005 26.925 21.465C26.835 21.39 26.715 21.42 26.61 21.435C26.475 21.465 24.375 22.86 20.28 25.62C19.68 26.025 19.14 26.235 18.66 26.22C18.12 26.205 17.1 25.92 16.335 25.665C15.39 25.365 14.655 25.2 14.715 24.675C14.745 24.405 15.12 24.135 15.825 23.85C20.205 21.945 23.115 20.685 24.57 20.085C28.74 18.345 29.595 18.045 30.165 18.045C30.285 18.045 30.57 18.075 30.75 18.225C30.9 18.345 30.945 18.51 30.96 18.63C30.945 18.72 30.975 18.99 30.96 19.2Z" fill="white"/>
</svg>
