<svg width="30" height="30" viewBox="0 0 30 30" fill="none" xmlns="http://www.w3.org/2000/svg">
<path d="M2.1 2.1C3.97364e-07 4.22 0 7.61 0 14.4V15.6C0 22.38 3.97364e-07 25.77 2.1 27.9C4.22 30 7.61 30 14.4 30H15.6C22.38 30 25.77 30 27.9 27.9C30 25.78 30 22.39 30 15.6V14.4C30 7.62 30 4.23 27.9 2.1C25.78 3.97364e-07 22.39 0 15.6 0H14.4C7.62 0 4.23 3.97364e-07 2.1 2.1ZM5.06 9.13H8.5C8.61 14.85 11.13 17.27 13.13 17.77V9.13H16.36V14.06C18.33 13.85 20.41 11.6 21.11 9.12H24.33C24.0675 10.4038 23.5431 11.6197 22.7895 12.6916C22.0358 13.7636 21.0692 14.6685 19.95 15.35C21.1991 15.9714 22.3021 16.8507 23.1864 17.9298C24.0707 19.0089 24.7161 20.2632 25.08 21.61H21.53C20.77 19.24 18.87 17.4 16.36 17.15V21.61H15.96C9.12 21.61 5.22 16.93 5.06 9.13Z" fill="white"/>
</svg>
