<svg width="12" height="14" viewBox="0 0 12 14" fill="none" xmlns="http://www.w3.org/2000/svg">
<path d="M11 0.25H2.5C1.90326 0.25 1.33097 0.487053 0.90901 0.90901C0.487053 1.33097 0.25 1.90326 0.25 2.5V13C0.25 13.1989 0.329018 13.3897 0.46967 13.5303C0.610322 13.671 0.801088 13.75 1 13.75H10C10.1989 13.75 10.3897 13.671 10.5303 13.5303C10.671 13.3897 10.75 13.1989 10.75 13C10.75 12.8011 10.671 12.6103 10.5303 12.4697C10.3897 12.329 10.1989 12.25 10 12.25H1.75V12C1.75 11.8011 1.82902 11.6103 1.96967 11.4697C2.11032 11.329 2.30109 11.25 2.5 11.25H11C11.1989 11.25 11.3897 11.171 11.5303 11.0303C11.671 10.8897 11.75 10.6989 11.75 10.5V1C11.75 0.801088 11.671 0.610322 11.5303 0.46967C11.3897 0.329018 11.1989 0.25 11 0.25ZM10.25 9.75H2.5C2.24446 9.74953 1.99075 9.79308 1.75 9.87875V2.5C1.75 2.30109 1.82902 2.11032 1.96967 1.96967C2.11032 1.82902 2.30109 1.75 2.5 1.75H10.25V9.75Z" fill="white"/>
</svg>
