<svg width="137" height="219" viewBox="0 0 137 219" fill="none" xmlns="http://www.w3.org/2000/svg">
<mask id="path-1-outside-1_348_26799" maskUnits="userSpaceOnUse" x="0" y="8" width="136" height="31" fill="black">
<rect fill="white" y="8" width="136" height="31"/>
<path d="M13.14 22.564L29.808 37H21.42L8.028 25.012V37H1.944V10.36H8.028V20.332L20.736 10.36H29.268L13.14 22.564ZM43.4273 9.784C46.5473 9.784 49.3553 10.384 51.8513 11.584C54.3713 12.784 56.3393 14.452 57.7553 16.588C59.1713 18.724 59.8793 21.124 59.8793 23.788C59.8793 26.428 59.1713 28.804 57.7553 30.916C56.3393 33.028 54.3833 34.696 51.8872 35.92C49.3913 37.12 46.5833 37.72 43.4632 37.72C40.4393 37.72 37.6553 37.12 35.1113 35.92C32.5672 34.696 30.5512 33.028 29.0632 30.916C27.5752 28.78 26.8312 26.404 26.8312 23.788C26.8312 21.148 27.5752 18.76 29.0632 16.624C30.5512 14.488 32.5552 12.82 35.0752 11.62C37.6192 10.396 40.4032 9.784 43.4273 9.784ZM43.4273 32.752C45.1792 32.752 46.8352 32.404 48.3952 31.708C49.9552 31.012 51.2152 29.992 52.1753 28.648C53.1353 27.28 53.6153 25.66 53.6153 23.788C53.6153 21.94 53.1233 20.332 52.1393 18.964C51.1793 17.596 49.9073 16.552 48.3233 15.832C46.7633 15.112 45.1073 14.752 43.3553 14.752C41.4832 14.752 39.7672 15.112 38.2072 15.832C36.6712 16.552 35.4472 17.584 34.5352 18.928C33.6232 20.272 33.1672 21.868 33.1672 23.716C33.1672 25.612 33.6352 27.244 34.5712 28.612C35.5312 29.956 36.7913 30.988 38.3513 31.708C39.9113 32.404 41.6033 32.752 43.4273 32.752ZM98.7067 10.36V37H92.6227V20.332L84.4867 37H78.4027L69.6907 20.08V37H63.6067V10.36H70.9507L81.3907 30.88L91.3987 10.36H98.7067ZM109.399 10.36V29.944L128.479 10.36H134.527V37H128.479V17.38L109.399 37H103.315V10.36H109.399Z"/>
</mask>
<path d="M13.14 22.564L12.5366 21.7666L11.552 22.5116L12.4853 23.3199L13.14 22.564ZM29.808 37V38H32.4901L30.4627 36.2441L29.808 37ZM21.42 37L20.753 37.7451L21.0378 38H21.42V37ZM8.028 25.012L8.69497 24.2669L7.028 22.7747V25.012H8.028ZM8.028 37V38H9.028V37H8.028ZM1.944 37H0.944V38H1.944V37ZM1.944 10.36V9.36H0.944V10.36H1.944ZM8.028 10.36H9.028V9.36H8.028V10.36ZM8.028 20.332H7.028V22.3878L8.64533 21.1187L8.028 20.332ZM20.736 10.36V9.36H20.3905L20.1187 9.57329L20.736 10.36ZM29.268 10.36L29.8714 11.1574L32.2468 9.36H29.268V10.36ZM12.4853 23.3199L29.1533 37.7559L30.4627 36.2441L13.7947 21.8081L12.4853 23.3199ZM29.808 36H21.42V38H29.808V36ZM22.087 36.2549L8.69497 24.2669L7.36103 25.7571L20.753 37.7451L22.087 36.2549ZM7.028 25.012V37H9.028V25.012H7.028ZM8.028 36H1.944V38H8.028V36ZM2.944 37V10.36H0.944V37H2.944ZM1.944 11.36H8.028V9.36H1.944V11.36ZM7.028 10.36V20.332H9.028V10.36H7.028ZM8.64533 21.1187L21.3533 11.1467L20.1187 9.57329L7.41067 19.5453L8.64533 21.1187ZM20.736 11.36H29.268V9.36H20.736V11.36ZM28.6646 9.56257L12.5366 21.7666L13.7434 23.3614L29.8714 11.1574L28.6646 9.56257ZM51.8512 11.584L51.418 12.4853L51.4213 12.4869L51.8512 11.584ZM57.7553 16.588L58.5887 16.0355L57.7553 16.588ZM57.7553 30.916L56.9247 30.3591L57.7553 30.916ZM51.8872 35.92L52.3206 36.8213L52.3275 36.8179L51.8872 35.92ZM35.1113 35.92L34.6777 36.8212L34.6846 36.8244L35.1113 35.92ZM29.0632 30.916L28.2427 31.4876L28.2458 31.492L29.0632 30.916ZM29.0632 16.624L28.2427 16.0524L29.0632 16.624ZM35.0752 11.62L35.5052 12.5229L35.5088 12.5211L35.0752 11.62ZM48.3952 31.708L48.8027 32.6212L48.3952 31.708ZM52.1753 28.648L52.989 29.2293L52.9938 29.2224L52.1753 28.648ZM52.1393 18.964L51.3206 19.5385L51.3274 19.5479L52.1393 18.964ZM48.3232 15.832L47.9042 16.74L47.9094 16.7424L48.3232 15.832ZM38.2072 15.832L37.7882 14.924L37.7828 14.9265L38.2072 15.832ZM34.5353 18.928L33.7078 18.3665L34.5353 18.928ZM34.5713 28.612L33.7459 29.1767L33.7516 29.185L33.7575 29.1932L34.5713 28.612ZM38.3512 31.708L37.9322 32.616L37.9438 32.6212L38.3512 31.708ZM43.4272 10.784C46.4163 10.784 49.0734 11.358 51.418 12.4853L52.2845 10.6827C49.6371 9.40995 46.6782 8.784 43.4272 8.784V10.784ZM51.4213 12.4869C53.7926 13.616 55.6149 15.1691 56.9218 17.1405L58.5887 16.0355C57.0636 13.7349 54.9499 11.952 52.2812 10.6811L51.4213 12.4869ZM56.9218 17.1405C58.2247 19.106 58.8793 21.3123 58.8793 23.788H60.8793C60.8793 20.9357 60.1178 18.342 58.5887 16.0355L56.9218 17.1405ZM58.8793 23.788C58.8793 26.2377 58.2258 28.4184 56.9247 30.3591L58.5858 31.4729C60.1167 29.1896 60.8793 26.6183 60.8793 23.788H58.8793ZM56.9247 30.3591C55.6155 32.3117 53.8003 33.8681 51.447 35.0221L52.3275 36.8179C54.9662 35.5239 57.063 33.7443 58.5858 31.4729L56.9247 30.3591ZM51.454 35.0187C49.1094 36.146 46.4523 36.72 43.4632 36.72V38.72C46.7142 38.72 49.6731 38.094 52.3205 36.8213L51.454 35.0187ZM43.4632 36.72C40.5755 36.72 37.9386 36.148 35.5379 35.0156L34.6846 36.8244C37.3719 38.092 40.303 38.72 43.4632 38.72V36.72ZM35.5448 35.0189C33.1398 33.8617 31.2616 32.3 29.8807 30.34L28.2458 31.492C29.8409 33.756 31.9947 35.5303 34.6777 36.8211L35.5448 35.0189ZM29.8838 30.3444C28.5132 28.377 27.8312 26.2007 27.8312 23.788H25.8312C25.8312 26.6073 26.6373 29.183 28.2427 31.4876L29.8838 30.3444ZM27.8312 23.788C27.8312 21.3493 28.5144 19.1614 29.8838 17.1956L28.2427 16.0524C26.6361 18.3586 25.8312 20.9467 25.8312 23.788H27.8312ZM29.8838 17.1956C31.2654 15.2123 33.1302 13.6538 35.5052 12.5229L34.6453 10.7171C31.9803 11.9862 29.8371 13.7637 28.2427 16.0524L29.8838 17.1956ZM35.5088 12.5211C37.9081 11.3668 40.5425 10.784 43.4272 10.784V8.784C40.264 8.784 37.3304 9.42523 34.6417 10.7189L35.5088 12.5211ZM43.4272 33.752C45.316 33.752 47.1111 33.3759 48.8027 32.6212L47.9878 30.7948C46.5594 31.4321 45.0425 31.752 43.4272 31.752V33.752ZM48.8027 32.6212C50.5194 31.8553 51.9219 30.7232 52.989 29.2292L51.3615 28.0668C50.5086 29.2608 49.3911 30.1687 47.9878 30.7948L48.8027 32.6212ZM52.9938 29.2224C54.0859 27.6663 54.6152 25.8398 54.6152 23.788H52.6152C52.6152 25.4802 52.1846 26.8937 51.3567 28.0736L52.9938 29.2224ZM54.6152 23.788C54.6152 21.7517 54.0693 19.9347 52.9511 18.3801L51.3274 19.5479C52.1772 20.7293 52.6152 22.1283 52.6152 23.788H54.6152ZM52.9578 18.3896C51.891 16.8693 50.4766 15.7123 48.7371 14.9216L47.9094 16.7424C49.3379 17.3917 50.4675 18.3227 51.3207 19.5384L52.9578 18.3896ZM48.7423 14.924C47.0483 14.1422 45.249 13.752 43.3553 13.752V15.752C44.9655 15.752 46.4782 16.0818 47.9042 16.74L48.7423 14.924ZM43.3553 13.752C41.3517 13.752 39.491 14.1381 37.7882 14.924L38.6263 16.74C40.0435 16.0859 41.6148 15.752 43.3553 15.752V13.752ZM37.7828 14.9265C36.0915 15.7193 34.7253 16.8669 33.7078 18.3665L35.3627 19.4895C36.1692 18.3011 37.251 17.3847 38.6317 16.7375L37.7828 14.9265ZM33.7078 18.3665C32.6683 19.8983 32.1673 21.6963 32.1673 23.716H34.1673C34.1673 22.0397 34.5782 20.6457 35.3627 19.4895L33.7078 18.3665ZM32.1673 23.716C32.1673 25.7836 32.6803 27.6193 33.7459 29.1767L35.3966 28.0473C34.5902 26.8687 34.1673 25.4404 34.1673 23.716H32.1673ZM33.7575 29.1932C34.8226 30.6844 36.2211 31.8262 37.9322 32.616L38.7703 30.8C37.3614 30.1498 36.2399 29.2276 35.385 28.0308L33.7575 29.1932ZM37.9438 32.6212C39.6406 33.3783 41.4725 33.752 43.4272 33.752V31.752C41.734 31.752 40.1819 31.4298 38.7587 30.7948L37.9438 32.6212ZM98.7067 10.36H99.7067V9.36H98.7067V10.36ZM98.7067 37V38H99.7067V37H98.7067ZM92.6227 37H91.6227V38H92.6227V37ZM92.6227 20.332H93.6227L91.724 19.8933L92.6227 20.332ZM84.4867 37V38H85.1113L85.3853 37.4387L84.4867 37ZM78.4027 37L77.5136 37.4578L77.7928 38H78.4027V37ZM69.6907 20.08L70.5797 19.6222L68.6907 20.08H69.6907ZM69.6907 37V38H70.6907V37H69.6907ZM63.6067 37H62.6067V38H63.6067V37ZM63.6067 10.36V9.36H62.6067V10.36H63.6067ZM70.9507 10.36L71.8419 9.90654L71.5639 9.36H70.9507V10.36ZM81.3907 30.88L80.4994 31.3335L81.4096 33.1224L82.2895 31.3184L81.3907 30.88ZM91.3987 10.36V9.36H90.7738L90.4999 9.92164L91.3987 10.36ZM97.7067 10.36V37H99.7067V10.36H97.7067ZM98.7067 36H92.6227V38H98.7067V36ZM93.6227 37V20.332H91.6227V37H93.6227ZM91.724 19.8933L83.588 36.5613L85.3853 37.4387L93.5213 20.7707L91.724 19.8933ZM84.4867 36H78.4027V38H84.4867V36ZM79.2917 36.5422L70.5797 19.6222L68.8016 20.5378L77.5136 37.4578L79.2917 36.5422ZM68.6907 20.08V37H70.6907V20.08H68.6907ZM69.6907 36H63.6067V38H69.6907V36ZM64.6067 37V10.36H62.6067V37H64.6067ZM63.6067 11.36H70.9507V9.36H63.6067V11.36ZM70.0594 10.8135L80.4994 31.3335L82.2819 30.4265L71.8419 9.90654L70.0594 10.8135ZM82.2895 31.3184L92.2975 10.7984L90.4999 9.92164L80.4919 30.4416L82.2895 31.3184ZM91.3987 11.36H98.7067V9.36H91.3987V11.36ZM109.399 10.36H110.399V9.36H109.399V10.36ZM109.399 29.944H108.399V32.4034L110.115 30.6418L109.399 29.944ZM128.479 10.36V9.36H128.057L127.763 9.66217L128.479 10.36ZM134.527 10.36H135.527V9.36H134.527V10.36ZM134.527 37V38H135.527V37H134.527ZM128.479 37H127.479V38H128.479V37ZM128.479 17.38H129.479V14.9173L127.762 16.6828L128.479 17.38ZM109.399 37V38H109.821L110.116 37.6972L109.399 37ZM103.315 37H102.315V38H103.315V37ZM103.315 10.36V9.36H102.315V10.36H103.315ZM108.399 10.36V29.944H110.399V10.36H108.399ZM110.115 30.6418L129.195 11.0578L127.763 9.66217L108.683 29.2462L110.115 30.6418ZM128.479 11.36H134.527V9.36H128.479V11.36ZM133.527 10.36V37H135.527V10.36H133.527ZM134.527 36H128.479V38H134.527V36ZM129.479 37V17.38H127.479V37H129.479ZM127.762 16.6828L108.682 36.3028L110.116 37.6972L129.196 18.0772L127.762 16.6828ZM109.399 36H103.315V38H109.399V36ZM104.315 37V10.36H102.315V37H104.315ZM103.315 11.36H109.399V9.36H103.315V11.36Z" fill="#2E5B97" mask="url(#path-1-outside-1_348_26799)"/>
<mask id="path-3-outside-2_348_26799" maskUnits="userSpaceOnUse" x="0" y="63" width="136" height="31" fill="black">
<rect fill="white" y="63" width="136" height="31"/>
<path d="M13.14 77.564L29.808 92H21.42L8.028 80.012V92H1.944V65.36H8.028V75.332L20.736 65.36H29.268L13.14 77.564ZM43.4273 64.784C46.5473 64.784 49.3553 65.384 51.8513 66.584C54.3713 67.784 56.3393 69.452 57.7553 71.588C59.1713 73.724 59.8793 76.124 59.8793 78.788C59.8793 81.428 59.1713 83.804 57.7553 85.916C56.3393 88.028 54.3833 89.696 51.8872 90.92C49.3913 92.12 46.5833 92.72 43.4632 92.72C40.4393 92.72 37.6553 92.12 35.1113 90.92C32.5672 89.696 30.5512 88.028 29.0632 85.916C27.5752 83.78 26.8312 81.404 26.8312 78.788C26.8312 76.148 27.5752 73.76 29.0632 71.624C30.5512 69.488 32.5552 67.82 35.0752 66.62C37.6192 65.396 40.4032 64.784 43.4273 64.784ZM43.4273 87.752C45.1792 87.752 46.8352 87.404 48.3952 86.708C49.9552 86.012 51.2152 84.992 52.1753 83.648C53.1353 82.28 53.6153 80.66 53.6153 78.788C53.6153 76.94 53.1233 75.332 52.1393 73.964C51.1793 72.596 49.9073 71.552 48.3233 70.832C46.7633 70.112 45.1073 69.752 43.3553 69.752C41.4832 69.752 39.7672 70.112 38.2072 70.832C36.6712 71.552 35.4472 72.584 34.5352 73.928C33.6232 75.272 33.1672 76.868 33.1672 78.716C33.1672 80.612 33.6352 82.244 34.5712 83.612C35.5312 84.956 36.7913 85.988 38.3513 86.708C39.9113 87.404 41.6033 87.752 43.4273 87.752ZM98.7067 65.36V92H92.6227V75.332L84.4867 92H78.4027L69.6907 75.08V92H63.6067V65.36H70.9507L81.3907 85.88L91.3987 65.36H98.7067ZM109.399 65.36V84.944L128.479 65.36H134.527V92H128.479V72.38L109.399 92H103.315V65.36H109.399Z"/>
</mask>
<path d="M13.14 77.564L12.5366 76.7666L11.552 77.5116L12.4853 78.3199L13.14 77.564ZM29.808 92V93H32.4901L30.4627 91.2441L29.808 92ZM21.42 92L20.753 92.7451L21.0378 93H21.42V92ZM8.028 80.012L8.69497 79.2669L7.028 77.7747V80.012H8.028ZM8.028 92V93H9.028V92H8.028ZM1.944 92H0.944V93H1.944V92ZM1.944 65.36V64.36H0.944V65.36H1.944ZM8.028 65.36H9.028V64.36H8.028V65.36ZM8.028 75.332H7.028V77.3878L8.64533 76.1187L8.028 75.332ZM20.736 65.36V64.36H20.3905L20.1187 64.5733L20.736 65.36ZM29.268 65.36L29.8714 66.1574L32.2468 64.36H29.268V65.36ZM12.4853 78.3199L29.1533 92.7559L30.4627 91.2441L13.7947 76.8081L12.4853 78.3199ZM29.808 91H21.42V93H29.808V91ZM22.087 91.2549L8.69497 79.2669L7.36103 80.7571L20.753 92.7451L22.087 91.2549ZM7.028 80.012V92H9.028V80.012H7.028ZM8.028 91H1.944V93H8.028V91ZM2.944 92V65.36H0.944V92H2.944ZM1.944 66.36H8.028V64.36H1.944V66.36ZM7.028 65.36V75.332H9.028V65.36H7.028ZM8.64533 76.1187L21.3533 66.1467L20.1187 64.5733L7.41067 74.5453L8.64533 76.1187ZM20.736 66.36H29.268V64.36H20.736V66.36ZM28.6646 64.5626L12.5366 76.7666L13.7434 78.3614L29.8714 66.1574L28.6646 64.5626ZM51.8512 66.584L51.418 67.4853L51.4213 67.4869L51.8512 66.584ZM57.7553 71.588L58.5887 71.0355L57.7553 71.588ZM57.7553 85.916L56.9247 85.3591L57.7553 85.916ZM51.8872 90.92L52.3206 91.8213L52.3275 91.8179L51.8872 90.92ZM35.1113 90.92L34.6777 91.8212L34.6846 91.8244L35.1113 90.92ZM29.0632 85.916L28.2427 86.4876L28.2458 86.492L29.0632 85.916ZM29.0632 71.624L28.2427 71.0524L29.0632 71.624ZM35.0752 66.62L35.5052 67.5229L35.5088 67.5211L35.0752 66.62ZM48.3952 86.708L48.8027 87.6212L48.3952 86.708ZM52.1753 83.648L52.989 84.2293L52.9938 84.2224L52.1753 83.648ZM52.1393 73.964L51.3206 74.5385L51.3274 74.5479L52.1393 73.964ZM48.3232 70.832L47.9042 71.74L47.9094 71.7424L48.3232 70.832ZM38.2072 70.832L37.7882 69.924L37.7828 69.9265L38.2072 70.832ZM34.5353 73.928L33.7078 73.3665L34.5353 73.928ZM34.5713 83.612L33.7459 84.1767L33.7516 84.185L33.7575 84.1932L34.5713 83.612ZM38.3512 86.708L37.9322 87.616L37.9438 87.6212L38.3512 86.708ZM43.4272 65.784C46.4163 65.784 49.0734 66.358 51.418 67.4853L52.2845 65.6827C49.6371 64.41 46.6782 63.784 43.4272 63.784V65.784ZM51.4213 67.4869C53.7926 68.616 55.6149 70.1691 56.9218 72.1405L58.5887 71.0355C57.0636 68.7349 54.9499 66.952 52.2812 65.6811L51.4213 67.4869ZM56.9218 72.1405C58.2247 74.106 58.8793 76.3123 58.8793 78.788H60.8793C60.8793 75.9357 60.1178 73.342 58.5887 71.0355L56.9218 72.1405ZM58.8793 78.788C58.8793 81.2377 58.2258 83.4184 56.9247 85.3591L58.5858 86.4729C60.1167 84.1896 60.8793 81.6183 60.8793 78.788H58.8793ZM56.9247 85.3591C55.6155 87.3117 53.8003 88.8681 51.447 90.0221L52.3275 91.8179C54.9662 90.5239 57.063 88.7443 58.5858 86.4729L56.9247 85.3591ZM51.454 90.0187C49.1094 91.146 46.4523 91.72 43.4632 91.72V93.72C46.7142 93.72 49.6731 93.094 52.3205 91.8213L51.454 90.0187ZM43.4632 91.72C40.5755 91.72 37.9386 91.148 35.5379 90.0156L34.6846 91.8244C37.3719 93.092 40.303 93.72 43.4632 93.72V91.72ZM35.5448 90.0189C33.1398 88.8617 31.2616 87.3 29.8807 85.34L28.2458 86.492C29.8409 88.756 31.9947 90.5303 34.6777 91.8211L35.5448 90.0189ZM29.8838 85.3444C28.5132 83.377 27.8312 81.2007 27.8312 78.788H25.8312C25.8312 81.6073 26.6373 84.183 28.2427 86.4876L29.8838 85.3444ZM27.8312 78.788C27.8312 76.3493 28.5144 74.1614 29.8838 72.1956L28.2427 71.0524C26.6361 73.3586 25.8312 75.9467 25.8312 78.788H27.8312ZM29.8838 72.1956C31.2654 70.2123 33.1302 68.6538 35.5052 67.5229L34.6453 65.7171C31.9803 66.9862 29.8371 68.7637 28.2427 71.0524L29.8838 72.1956ZM35.5088 67.5211C37.9081 66.3668 40.5425 65.784 43.4272 65.784V63.784C40.264 63.784 37.3304 64.4252 34.6417 65.7189L35.5088 67.5211ZM43.4272 88.752C45.316 88.752 47.1111 88.3759 48.8027 87.6212L47.9878 85.7948C46.5594 86.4321 45.0425 86.752 43.4272 86.752V88.752ZM48.8027 87.6212C50.5194 86.8553 51.9219 85.7232 52.989 84.2292L51.3615 83.0668C50.5086 84.2608 49.3911 85.1687 47.9878 85.7948L48.8027 87.6212ZM52.9938 84.2224C54.0859 82.6663 54.6152 80.8398 54.6152 78.788H52.6152C52.6152 80.4802 52.1846 81.8937 51.3567 83.0736L52.9938 84.2224ZM54.6152 78.788C54.6152 76.7517 54.0693 74.9347 52.9511 73.3801L51.3274 74.5479C52.1772 75.7293 52.6152 77.1283 52.6152 78.788H54.6152ZM52.9578 73.3896C51.891 71.8693 50.4766 70.7123 48.7371 69.9216L47.9094 71.7424C49.3379 72.3917 50.4675 73.3227 51.3207 74.5384L52.9578 73.3896ZM48.7423 69.924C47.0483 69.1422 45.249 68.752 43.3553 68.752V70.752C44.9655 70.752 46.4782 71.0818 47.9042 71.74L48.7423 69.924ZM43.3553 68.752C41.3517 68.752 39.491 69.1381 37.7882 69.924L38.6263 71.74C40.0435 71.0859 41.6148 70.752 43.3553 70.752V68.752ZM37.7828 69.9265C36.0915 70.7193 34.7253 71.8669 33.7078 73.3665L35.3627 74.4895C36.1692 73.3011 37.251 72.3847 38.6317 71.7375L37.7828 69.9265ZM33.7078 73.3665C32.6683 74.8983 32.1673 76.6963 32.1673 78.716H34.1673C34.1673 77.0397 34.5782 75.6457 35.3627 74.4895L33.7078 73.3665ZM32.1673 78.716C32.1673 80.7836 32.6803 82.6193 33.7459 84.1767L35.3966 83.0473C34.5902 81.8687 34.1673 80.4404 34.1673 78.716H32.1673ZM33.7575 84.1932C34.8226 85.6844 36.2211 86.8262 37.9322 87.616L38.7703 85.8C37.3614 85.1498 36.2399 84.2276 35.385 83.0308L33.7575 84.1932ZM37.9438 87.6212C39.6406 88.3783 41.4725 88.752 43.4272 88.752V86.752C41.734 86.752 40.1819 86.4298 38.7587 85.7948L37.9438 87.6212ZM98.7067 65.36H99.7067V64.36H98.7067V65.36ZM98.7067 92V93H99.7067V92H98.7067ZM92.6227 92H91.6227V93H92.6227V92ZM92.6227 75.332H93.6227L91.724 74.8933L92.6227 75.332ZM84.4867 92V93H85.1113L85.3853 92.4387L84.4867 92ZM78.4027 92L77.5136 92.4578L77.7928 93H78.4027V92ZM69.6907 75.08L70.5797 74.6222L68.6907 75.08H69.6907ZM69.6907 92V93H70.6907V92H69.6907ZM63.6067 92H62.6067V93H63.6067V92ZM63.6067 65.36V64.36H62.6067V65.36H63.6067ZM70.9507 65.36L71.8419 64.9065L71.5639 64.36H70.9507V65.36ZM81.3907 85.88L80.4994 86.3335L81.4096 88.1224L82.2895 86.3184L81.3907 85.88ZM91.3987 65.36V64.36H90.7738L90.4999 64.9216L91.3987 65.36ZM97.7067 65.36V92H99.7067V65.36H97.7067ZM98.7067 91H92.6227V93H98.7067V91ZM93.6227 92V75.332H91.6227V92H93.6227ZM91.724 74.8933L83.588 91.5613L85.3853 92.4387L93.5213 75.7707L91.724 74.8933ZM84.4867 91H78.4027V93H84.4867V91ZM79.2917 91.5422L70.5797 74.6222L68.8016 75.5378L77.5136 92.4578L79.2917 91.5422ZM68.6907 75.08V92H70.6907V75.08H68.6907ZM69.6907 91H63.6067V93H69.6907V91ZM64.6067 92V65.36H62.6067V92H64.6067ZM63.6067 66.36H70.9507V64.36H63.6067V66.36ZM70.0594 65.8135L80.4994 86.3335L82.2819 85.4265L71.8419 64.9065L70.0594 65.8135ZM82.2895 86.3184L92.2975 65.7984L90.4999 64.9216L80.4919 85.4416L82.2895 86.3184ZM91.3987 66.36H98.7067V64.36H91.3987V66.36ZM109.399 65.36H110.399V64.36H109.399V65.36ZM109.399 84.944H108.399V87.4034L110.115 85.6418L109.399 84.944ZM128.479 65.36V64.36H128.057L127.763 64.6622L128.479 65.36ZM134.527 65.36H135.527V64.36H134.527V65.36ZM134.527 92V93H135.527V92H134.527ZM128.479 92H127.479V93H128.479V92ZM128.479 72.38H129.479V69.9173L127.762 71.6828L128.479 72.38ZM109.399 92V93H109.821L110.116 92.6972L109.399 92ZM103.315 92H102.315V93H103.315V92ZM103.315 65.36V64.36H102.315V65.36H103.315ZM108.399 65.36V84.944H110.399V65.36H108.399ZM110.115 85.6418L129.195 66.0578L127.763 64.6622L108.683 84.2462L110.115 85.6418ZM128.479 66.36H134.527V64.36H128.479V66.36ZM133.527 65.36V92H135.527V65.36H133.527ZM134.527 91H128.479V93H134.527V91ZM129.479 92V72.38H127.479V92H129.479ZM127.762 71.6828L108.682 91.3028L110.116 92.6972L129.196 73.0772L127.762 71.6828ZM109.399 91H103.315V93H109.399V91ZM104.315 92V65.36H102.315V92H104.315ZM103.315 66.36H109.399V64.36H103.315V66.36Z" fill="#2E5B97" mask="url(#path-3-outside-2_348_26799)"/>
<mask id="path-5-outside-3_348_26799" maskUnits="userSpaceOnUse" x="0" y="118" width="136" height="31" fill="black">
<rect fill="white" y="118" width="136" height="31"/>
<path d="M13.14 132.564L29.808 147H21.42L8.028 135.012V147H1.944V120.36H8.028V130.332L20.736 120.36H29.268L13.14 132.564ZM43.4273 119.784C46.5473 119.784 49.3553 120.384 51.8513 121.584C54.3713 122.784 56.3393 124.452 57.7553 126.588C59.1713 128.724 59.8793 131.124 59.8793 133.788C59.8793 136.428 59.1713 138.804 57.7553 140.916C56.3393 143.028 54.3833 144.696 51.8872 145.92C49.3913 147.12 46.5833 147.72 43.4632 147.72C40.4393 147.72 37.6553 147.12 35.1113 145.92C32.5672 144.696 30.5512 143.028 29.0632 140.916C27.5752 138.78 26.8312 136.404 26.8312 133.788C26.8312 131.148 27.5752 128.76 29.0632 126.624C30.5512 124.488 32.5552 122.82 35.0752 121.62C37.6192 120.396 40.4032 119.784 43.4273 119.784ZM43.4273 142.752C45.1792 142.752 46.8352 142.404 48.3952 141.708C49.9552 141.012 51.2152 139.992 52.1753 138.648C53.1353 137.28 53.6153 135.66 53.6153 133.788C53.6153 131.94 53.1233 130.332 52.1393 128.964C51.1793 127.596 49.9073 126.552 48.3233 125.832C46.7633 125.112 45.1073 124.752 43.3553 124.752C41.4832 124.752 39.7672 125.112 38.2072 125.832C36.6712 126.552 35.4472 127.584 34.5352 128.928C33.6232 130.272 33.1672 131.868 33.1672 133.716C33.1672 135.612 33.6352 137.244 34.5712 138.612C35.5312 139.956 36.7913 140.988 38.3513 141.708C39.9113 142.404 41.6033 142.752 43.4273 142.752ZM98.7067 120.36V147H92.6227V130.332L84.4867 147H78.4027L69.6907 130.08V147H63.6067V120.36H70.9507L81.3907 140.88L91.3987 120.36H98.7067ZM109.399 120.36V139.944L128.479 120.36H134.527V147H128.479V127.38L109.399 147H103.315V120.36H109.399Z"/>
</mask>
<path d="M13.14 132.564L12.5366 131.767L11.552 132.512L12.4853 133.32L13.14 132.564ZM29.808 147V148H32.4901L30.4627 146.244L29.808 147ZM21.42 147L20.753 147.745L21.0378 148H21.42V147ZM8.028 135.012L8.69497 134.267L7.028 132.775V135.012H8.028ZM8.028 147V148H9.028V147H8.028ZM1.944 147H0.944V148H1.944V147ZM1.944 120.36V119.36H0.944V120.36H1.944ZM8.028 120.36H9.028V119.36H8.028V120.36ZM8.028 130.332H7.028V132.388L8.64533 131.119L8.028 130.332ZM20.736 120.36V119.36H20.3905L20.1187 119.573L20.736 120.36ZM29.268 120.36L29.8714 121.157L32.2468 119.36H29.268V120.36ZM12.4853 133.32L29.1533 147.756L30.4627 146.244L13.7947 131.808L12.4853 133.32ZM29.808 146H21.42V148H29.808V146ZM22.087 146.255L8.69497 134.267L7.36103 135.757L20.753 147.745L22.087 146.255ZM7.028 135.012V147H9.028V135.012H7.028ZM8.028 146H1.944V148H8.028V146ZM2.944 147V120.36H0.944V147H2.944ZM1.944 121.36H8.028V119.36H1.944V121.36ZM7.028 120.36V130.332H9.028V120.36H7.028ZM8.64533 131.119L21.3533 121.147L20.1187 119.573L7.41067 129.545L8.64533 131.119ZM20.736 121.36H29.268V119.36H20.736V121.36ZM28.6646 119.563L12.5366 131.767L13.7434 133.361L29.8714 121.157L28.6646 119.563ZM51.8512 121.584L51.418 122.485L51.4213 122.487L51.8512 121.584ZM57.7553 126.588L58.5887 126.035L57.7553 126.588ZM57.7553 140.916L56.9247 140.359L57.7553 140.916ZM51.8872 145.92L52.3206 146.821L52.3275 146.818L51.8872 145.92ZM35.1113 145.92L34.6777 146.821L34.6846 146.824L35.1113 145.92ZM29.0632 140.916L28.2427 141.488L28.2458 141.492L29.0632 140.916ZM29.0632 126.624L28.2427 126.052L29.0632 126.624ZM35.0752 121.62L35.5052 122.523L35.5088 122.521L35.0752 121.62ZM48.3952 141.708L48.8027 142.621L48.3952 141.708ZM52.1753 138.648L52.989 139.229L52.9938 139.222L52.1753 138.648ZM52.1393 128.964L51.3206 129.538L51.3274 129.548L52.1393 128.964ZM48.3232 125.832L47.9042 126.74L47.9094 126.742L48.3232 125.832ZM38.2072 125.832L37.7882 124.924L37.7828 124.927L38.2072 125.832ZM34.5353 128.928L33.7078 128.366L34.5353 128.928ZM34.5713 138.612L33.7459 139.177L33.7516 139.185L33.7575 139.193L34.5713 138.612ZM38.3512 141.708L37.9322 142.616L37.9438 142.621L38.3512 141.708ZM43.4272 120.784C46.4163 120.784 49.0734 121.358 51.418 122.485L52.2845 120.683C49.6371 119.41 46.6782 118.784 43.4272 118.784V120.784ZM51.4213 122.487C53.7926 123.616 55.6149 125.169 56.9218 127.141L58.5887 126.035C57.0636 123.735 54.9499 121.952 52.2812 120.681L51.4213 122.487ZM56.9218 127.141C58.2247 129.106 58.8793 131.312 58.8793 133.788H60.8793C60.8793 130.936 60.1178 128.342 58.5887 126.035L56.9218 127.141ZM58.8793 133.788C58.8793 136.238 58.2258 138.418 56.9247 140.359L58.5858 141.473C60.1167 139.19 60.8793 136.618 60.8793 133.788H58.8793ZM56.9247 140.359C55.6155 142.312 53.8003 143.868 51.447 145.022L52.3275 146.818C54.9662 145.524 57.063 143.744 58.5858 141.473L56.9247 140.359ZM51.454 145.019C49.1094 146.146 46.4523 146.72 43.4632 146.72V148.72C46.7142 148.72 49.6731 148.094 52.3205 146.821L51.454 145.019ZM43.4632 146.72C40.5755 146.72 37.9386 146.148 35.5379 145.016L34.6846 146.824C37.3719 148.092 40.303 148.72 43.4632 148.72V146.72ZM35.5448 145.019C33.1398 143.862 31.2616 142.3 29.8807 140.34L28.2458 141.492C29.8409 143.756 31.9947 145.53 34.6777 146.821L35.5448 145.019ZM29.8838 140.344C28.5132 138.377 27.8312 136.201 27.8312 133.788H25.8312C25.8312 136.607 26.6373 139.183 28.2427 141.488L29.8838 140.344ZM27.8312 133.788C27.8312 131.349 28.5144 129.161 29.8838 127.196L28.2427 126.052C26.6361 128.359 25.8312 130.947 25.8312 133.788H27.8312ZM29.8838 127.196C31.2654 125.212 33.1302 123.654 35.5052 122.523L34.6453 120.717C31.9803 121.986 29.8371 123.764 28.2427 126.052L29.8838 127.196ZM35.5088 122.521C37.9081 121.367 40.5425 120.784 43.4272 120.784V118.784C40.264 118.784 37.3304 119.425 34.6417 120.719L35.5088 122.521ZM43.4272 143.752C45.316 143.752 47.1111 143.376 48.8027 142.621L47.9878 140.795C46.5594 141.432 45.0425 141.752 43.4272 141.752V143.752ZM48.8027 142.621C50.5194 141.855 51.9219 140.723 52.989 139.229L51.3615 138.067C50.5086 139.261 49.3911 140.169 47.9878 140.795L48.8027 142.621ZM52.9938 139.222C54.0859 137.666 54.6152 135.84 54.6152 133.788H52.6152C52.6152 135.48 52.1846 136.894 51.3567 138.074L52.9938 139.222ZM54.6152 133.788C54.6152 131.752 54.0693 129.935 52.9511 128.38L51.3274 129.548C52.1772 130.729 52.6152 132.128 52.6152 133.788H54.6152ZM52.9578 128.39C51.891 126.869 50.4766 125.712 48.7371 124.922L47.9094 126.742C49.3379 127.392 50.4675 128.323 51.3207 129.538L52.9578 128.39ZM48.7423 124.924C47.0483 124.142 45.249 123.752 43.3553 123.752V125.752C44.9655 125.752 46.4782 126.082 47.9042 126.74L48.7423 124.924ZM43.3553 123.752C41.3517 123.752 39.491 124.138 37.7882 124.924L38.6263 126.74C40.0435 126.086 41.6148 125.752 43.3553 125.752V123.752ZM37.7828 124.927C36.0915 125.719 34.7253 126.867 33.7078 128.366L35.3627 129.49C36.1692 128.301 37.251 127.385 38.6317 126.737L37.7828 124.927ZM33.7078 128.366C32.6683 129.898 32.1673 131.696 32.1673 133.716H34.1673C34.1673 132.04 34.5782 130.646 35.3627 129.49L33.7078 128.366ZM32.1673 133.716C32.1673 135.784 32.6803 137.619 33.7459 139.177L35.3966 138.047C34.5902 136.869 34.1673 135.44 34.1673 133.716H32.1673ZM33.7575 139.193C34.8226 140.684 36.2211 141.826 37.9322 142.616L38.7703 140.8C37.3614 140.15 36.2399 139.228 35.385 138.031L33.7575 139.193ZM37.9438 142.621C39.6406 143.378 41.4725 143.752 43.4272 143.752V141.752C41.734 141.752 40.1819 141.43 38.7587 140.795L37.9438 142.621ZM98.7067 120.36H99.7067V119.36H98.7067V120.36ZM98.7067 147V148H99.7067V147H98.7067ZM92.6227 147H91.6227V148H92.6227V147ZM92.6227 130.332H93.6227L91.724 129.893L92.6227 130.332ZM84.4867 147V148H85.1113L85.3853 147.439L84.4867 147ZM78.4027 147L77.5136 147.458L77.7928 148H78.4027V147ZM69.6907 130.08L70.5797 129.622L68.6907 130.08H69.6907ZM69.6907 147V148H70.6907V147H69.6907ZM63.6067 147H62.6067V148H63.6067V147ZM63.6067 120.36V119.36H62.6067V120.36H63.6067ZM70.9507 120.36L71.8419 119.907L71.5639 119.36H70.9507V120.36ZM81.3907 140.88L80.4994 141.333L81.4096 143.122L82.2895 141.318L81.3907 140.88ZM91.3987 120.36V119.36H90.7738L90.4999 119.922L91.3987 120.36ZM97.7067 120.36V147H99.7067V120.36H97.7067ZM98.7067 146H92.6227V148H98.7067V146ZM93.6227 147V130.332H91.6227V147H93.6227ZM91.724 129.893L83.588 146.561L85.3853 147.439L93.5213 130.771L91.724 129.893ZM84.4867 146H78.4027V148H84.4867V146ZM79.2917 146.542L70.5797 129.622L68.8016 130.538L77.5136 147.458L79.2917 146.542ZM68.6907 130.08V147H70.6907V130.08H68.6907ZM69.6907 146H63.6067V148H69.6907V146ZM64.6067 147V120.36H62.6067V147H64.6067ZM63.6067 121.36H70.9507V119.36H63.6067V121.36ZM70.0594 120.813L80.4994 141.333L82.2819 140.427L71.8419 119.907L70.0594 120.813ZM82.2895 141.318L92.2975 120.798L90.4999 119.922L80.4919 140.442L82.2895 141.318ZM91.3987 121.36H98.7067V119.36H91.3987V121.36ZM109.399 120.36H110.399V119.36H109.399V120.36ZM109.399 139.944H108.399V142.403L110.115 140.642L109.399 139.944ZM128.479 120.36V119.36H128.057L127.763 119.662L128.479 120.36ZM134.527 120.36H135.527V119.36H134.527V120.36ZM134.527 147V148H135.527V147H134.527ZM128.479 147H127.479V148H128.479V147ZM128.479 127.38H129.479V124.917L127.762 126.683L128.479 127.38ZM109.399 147V148H109.821L110.116 147.697L109.399 147ZM103.315 147H102.315V148H103.315V147ZM103.315 120.36V119.36H102.315V120.36H103.315ZM108.399 120.36V139.944H110.399V120.36H108.399ZM110.115 140.642L129.195 121.058L127.763 119.662L108.683 139.246L110.115 140.642ZM128.479 121.36H134.527V119.36H128.479V121.36ZM133.527 120.36V147H135.527V120.36H133.527ZM134.527 146H128.479V148H134.527V146ZM129.479 147V127.38H127.479V147H129.479ZM127.762 126.683L108.682 146.303L110.116 147.697L129.196 128.077L127.762 126.683ZM109.399 146H103.315V148H109.399V146ZM104.315 147V120.36H102.315V147H104.315ZM103.315 121.36H109.399V119.36H103.315V121.36Z" fill="#2E5B97" mask="url(#path-5-outside-3_348_26799)"/>
<mask id="path-7-outside-4_348_26799" maskUnits="userSpaceOnUse" x="0" y="173" width="136" height="31" fill="black">
<rect fill="white" y="173" width="136" height="31"/>
<path d="M13.14 187.564L29.808 202H21.42L8.028 190.012V202H1.944V175.36H8.028V185.332L20.736 175.36H29.268L13.14 187.564ZM43.4273 174.784C46.5473 174.784 49.3553 175.384 51.8513 176.584C54.3713 177.784 56.3393 179.452 57.7553 181.588C59.1713 183.724 59.8793 186.124 59.8793 188.788C59.8793 191.428 59.1713 193.804 57.7553 195.916C56.3393 198.028 54.3833 199.696 51.8872 200.92C49.3913 202.12 46.5833 202.72 43.4632 202.72C40.4393 202.72 37.6553 202.12 35.1113 200.92C32.5672 199.696 30.5512 198.028 29.0632 195.916C27.5752 193.78 26.8312 191.404 26.8312 188.788C26.8312 186.148 27.5752 183.76 29.0632 181.624C30.5512 179.488 32.5552 177.82 35.0752 176.62C37.6192 175.396 40.4032 174.784 43.4273 174.784ZM43.4273 197.752C45.1792 197.752 46.8352 197.404 48.3952 196.708C49.9552 196.012 51.2152 194.992 52.1753 193.648C53.1353 192.28 53.6153 190.66 53.6153 188.788C53.6153 186.94 53.1233 185.332 52.1393 183.964C51.1793 182.596 49.9073 181.552 48.3233 180.832C46.7633 180.112 45.1073 179.752 43.3553 179.752C41.4832 179.752 39.7672 180.112 38.2072 180.832C36.6712 181.552 35.4472 182.584 34.5352 183.928C33.6232 185.272 33.1672 186.868 33.1672 188.716C33.1672 190.612 33.6352 192.244 34.5712 193.612C35.5312 194.956 36.7913 195.988 38.3513 196.708C39.9113 197.404 41.6033 197.752 43.4273 197.752ZM98.7067 175.36V202H92.6227V185.332L84.4867 202H78.4027L69.6907 185.08V202H63.6067V175.36H70.9507L81.3907 195.88L91.3987 175.36H98.7067ZM109.399 175.36V194.944L128.479 175.36H134.527V202H128.479V182.38L109.399 202H103.315V175.36H109.399Z"/>
</mask>
<path d="M13.14 187.564L12.5366 186.767L11.552 187.512L12.4853 188.32L13.14 187.564ZM29.808 202V203H32.4901L30.4627 201.244L29.808 202ZM21.42 202L20.753 202.745L21.0378 203H21.42V202ZM8.028 190.012L8.69497 189.267L7.028 187.775V190.012H8.028ZM8.028 202V203H9.028V202H8.028ZM1.944 202H0.944V203H1.944V202ZM1.944 175.36V174.36H0.944V175.36H1.944ZM8.028 175.36H9.028V174.36H8.028V175.36ZM8.028 185.332H7.028V187.388L8.64533 186.119L8.028 185.332ZM20.736 175.36V174.36H20.3905L20.1187 174.573L20.736 175.36ZM29.268 175.36L29.8714 176.157L32.2468 174.36H29.268V175.36ZM12.4853 188.32L29.1533 202.756L30.4627 201.244L13.7947 186.808L12.4853 188.32ZM29.808 201H21.42V203H29.808V201ZM22.087 201.255L8.69497 189.267L7.36103 190.757L20.753 202.745L22.087 201.255ZM7.028 190.012V202H9.028V190.012H7.028ZM8.028 201H1.944V203H8.028V201ZM2.944 202V175.36H0.944V202H2.944ZM1.944 176.36H8.028V174.36H1.944V176.36ZM7.028 175.36V185.332H9.028V175.36H7.028ZM8.64533 186.119L21.3533 176.147L20.1187 174.573L7.41067 184.545L8.64533 186.119ZM20.736 176.36H29.268V174.36H20.736V176.36ZM28.6646 174.563L12.5366 186.767L13.7434 188.361L29.8714 176.157L28.6646 174.563ZM51.8512 176.584L51.418 177.485L51.4213 177.487L51.8512 176.584ZM57.7553 181.588L58.5887 181.035L57.7553 181.588ZM57.7553 195.916L56.9247 195.359L57.7553 195.916ZM51.8872 200.92L52.3206 201.821L52.3275 201.818L51.8872 200.92ZM35.1113 200.92L34.6777 201.821L34.6846 201.824L35.1113 200.92ZM29.0632 195.916L28.2427 196.488L28.2458 196.492L29.0632 195.916ZM29.0632 181.624L28.2427 181.052L29.0632 181.624ZM35.0752 176.62L35.5052 177.523L35.5088 177.521L35.0752 176.62ZM48.3952 196.708L48.8027 197.621L48.3952 196.708ZM52.1753 193.648L52.989 194.229L52.9938 194.222L52.1753 193.648ZM52.1393 183.964L51.3206 184.538L51.3274 184.548L52.1393 183.964ZM48.3232 180.832L47.9042 181.74L47.9094 181.742L48.3232 180.832ZM38.2072 180.832L37.7882 179.924L37.7828 179.927L38.2072 180.832ZM34.5353 183.928L33.7078 183.366L34.5353 183.928ZM34.5713 193.612L33.7459 194.177L33.7516 194.185L33.7575 194.193L34.5713 193.612ZM38.3512 196.708L37.9322 197.616L37.9438 197.621L38.3512 196.708ZM43.4272 175.784C46.4163 175.784 49.0734 176.358 51.418 177.485L52.2845 175.683C49.6371 174.41 46.6782 173.784 43.4272 173.784V175.784ZM51.4213 177.487C53.7926 178.616 55.6149 180.169 56.9218 182.141L58.5887 181.035C57.0636 178.735 54.9499 176.952 52.2812 175.681L51.4213 177.487ZM56.9218 182.141C58.2247 184.106 58.8793 186.312 58.8793 188.788H60.8793C60.8793 185.936 60.1178 183.342 58.5887 181.035L56.9218 182.141ZM58.8793 188.788C58.8793 191.238 58.2258 193.418 56.9247 195.359L58.5858 196.473C60.1167 194.19 60.8793 191.618 60.8793 188.788H58.8793ZM56.9247 195.359C55.6155 197.312 53.8003 198.868 51.447 200.022L52.3275 201.818C54.9662 200.524 57.063 198.744 58.5858 196.473L56.9247 195.359ZM51.454 200.019C49.1094 201.146 46.4523 201.72 43.4632 201.72V203.72C46.7142 203.72 49.6731 203.094 52.3205 201.821L51.454 200.019ZM43.4632 201.72C40.5755 201.72 37.9386 201.148 35.5379 200.016L34.6846 201.824C37.3719 203.092 40.303 203.72 43.4632 203.72V201.72ZM35.5448 200.019C33.1398 198.862 31.2616 197.3 29.8807 195.34L28.2458 196.492C29.8409 198.756 31.9947 200.53 34.6777 201.821L35.5448 200.019ZM29.8838 195.344C28.5132 193.377 27.8312 191.201 27.8312 188.788H25.8312C25.8312 191.607 26.6373 194.183 28.2427 196.488L29.8838 195.344ZM27.8312 188.788C27.8312 186.349 28.5144 184.161 29.8838 182.196L28.2427 181.052C26.6361 183.359 25.8312 185.947 25.8312 188.788H27.8312ZM29.8838 182.196C31.2654 180.212 33.1302 178.654 35.5052 177.523L34.6453 175.717C31.9803 176.986 29.8371 178.764 28.2427 181.052L29.8838 182.196ZM35.5088 177.521C37.9081 176.367 40.5425 175.784 43.4272 175.784V173.784C40.264 173.784 37.3304 174.425 34.6417 175.719L35.5088 177.521ZM43.4272 198.752C45.316 198.752 47.1111 198.376 48.8027 197.621L47.9878 195.795C46.5594 196.432 45.0425 196.752 43.4272 196.752V198.752ZM48.8027 197.621C50.5194 196.855 51.9219 195.723 52.989 194.229L51.3615 193.067C50.5086 194.261 49.3911 195.169 47.9878 195.795L48.8027 197.621ZM52.9938 194.222C54.0859 192.666 54.6152 190.84 54.6152 188.788H52.6152C52.6152 190.48 52.1846 191.894 51.3567 193.074L52.9938 194.222ZM54.6152 188.788C54.6152 186.752 54.0693 184.935 52.9511 183.38L51.3274 184.548C52.1772 185.729 52.6152 187.128 52.6152 188.788H54.6152ZM52.9578 183.39C51.891 181.869 50.4766 180.712 48.7371 179.922L47.9094 181.742C49.3379 182.392 50.4675 183.323 51.3207 184.538L52.9578 183.39ZM48.7423 179.924C47.0483 179.142 45.249 178.752 43.3553 178.752V180.752C44.9655 180.752 46.4782 181.082 47.9042 181.74L48.7423 179.924ZM43.3553 178.752C41.3517 178.752 39.491 179.138 37.7882 179.924L38.6263 181.74C40.0435 181.086 41.6148 180.752 43.3553 180.752V178.752ZM37.7828 179.927C36.0915 180.719 34.7253 181.867 33.7078 183.366L35.3627 184.49C36.1692 183.301 37.251 182.385 38.6317 181.737L37.7828 179.927ZM33.7078 183.366C32.6683 184.898 32.1673 186.696 32.1673 188.716H34.1673C34.1673 187.04 34.5782 185.646 35.3627 184.49L33.7078 183.366ZM32.1673 188.716C32.1673 190.784 32.6803 192.619 33.7459 194.177L35.3966 193.047C34.5902 191.869 34.1673 190.44 34.1673 188.716H32.1673ZM33.7575 194.193C34.8226 195.684 36.2211 196.826 37.9322 197.616L38.7703 195.8C37.3614 195.15 36.2399 194.228 35.385 193.031L33.7575 194.193ZM37.9438 197.621C39.6406 198.378 41.4725 198.752 43.4272 198.752V196.752C41.734 196.752 40.1819 196.43 38.7587 195.795L37.9438 197.621ZM98.7067 175.36H99.7067V174.36H98.7067V175.36ZM98.7067 202V203H99.7067V202H98.7067ZM92.6227 202H91.6227V203H92.6227V202ZM92.6227 185.332H93.6227L91.724 184.893L92.6227 185.332ZM84.4867 202V203H85.1113L85.3853 202.439L84.4867 202ZM78.4027 202L77.5136 202.458L77.7928 203H78.4027V202ZM69.6907 185.08L70.5797 184.622L68.6907 185.08H69.6907ZM69.6907 202V203H70.6907V202H69.6907ZM63.6067 202H62.6067V203H63.6067V202ZM63.6067 175.36V174.36H62.6067V175.36H63.6067ZM70.9507 175.36L71.8419 174.907L71.5639 174.36H70.9507V175.36ZM81.3907 195.88L80.4994 196.333L81.4096 198.122L82.2895 196.318L81.3907 195.88ZM91.3987 175.36V174.36H90.7738L90.4999 174.922L91.3987 175.36ZM97.7067 175.36V202H99.7067V175.36H97.7067ZM98.7067 201H92.6227V203H98.7067V201ZM93.6227 202V185.332H91.6227V202H93.6227ZM91.724 184.893L83.588 201.561L85.3853 202.439L93.5213 185.771L91.724 184.893ZM84.4867 201H78.4027V203H84.4867V201ZM79.2917 201.542L70.5797 184.622L68.8016 185.538L77.5136 202.458L79.2917 201.542ZM68.6907 185.08V202H70.6907V185.08H68.6907ZM69.6907 201H63.6067V203H69.6907V201ZM64.6067 202V175.36H62.6067V202H64.6067ZM63.6067 176.36H70.9507V174.36H63.6067V176.36ZM70.0594 175.813L80.4994 196.333L82.2819 195.427L71.8419 174.907L70.0594 175.813ZM82.2895 196.318L92.2975 175.798L90.4999 174.922L80.4919 195.442L82.2895 196.318ZM91.3987 176.36H98.7067V174.36H91.3987V176.36ZM109.399 175.36H110.399V174.36H109.399V175.36ZM109.399 194.944H108.399V197.403L110.115 195.642L109.399 194.944ZM128.479 175.36V174.36H128.057L127.763 174.662L128.479 175.36ZM134.527 175.36H135.527V174.36H134.527V175.36ZM134.527 202V203H135.527V202H134.527ZM128.479 202H127.479V203H128.479V202ZM128.479 182.38H129.479V179.917L127.762 181.683L128.479 182.38ZM109.399 202V203H109.821L110.116 202.697L109.399 202ZM103.315 202H102.315V203H103.315V202ZM103.315 175.36V174.36H102.315V175.36H103.315ZM108.399 175.36V194.944H110.399V175.36H108.399ZM110.115 195.642L129.195 176.058L127.763 174.662L108.683 194.246L110.115 195.642ZM128.479 176.36H134.527V174.36H128.479V176.36ZM133.527 175.36V202H135.527V175.36H133.527ZM134.527 201H128.479V203H134.527V201ZM129.479 202V182.38H127.479V202H129.479ZM127.762 181.683L108.682 201.303L110.116 202.697L129.196 183.077L127.762 181.683ZM109.399 201H103.315V203H109.399V201ZM104.315 202V175.36H102.315V202H104.315ZM103.315 176.36H109.399V174.36H103.315V176.36Z" fill="#2E5B97" mask="url(#path-7-outside-4_348_26799)"/>
</svg>
