<svg width="510" height="526" viewBox="0 0 510 526" fill="none" xmlns="http://www.w3.org/2000/svg">
<mask id="path-1-inside-1_348_7205" fill="white">
<path fill-rule="evenodd" clip-rule="evenodd" d="M108.254 130.812L103.453 173.335L118.729 180.358L119.425 180.682L119.48 181.464L120.157 193.849L133.251 206.727L133.939 207.387L133.475 208.281L124.197 225.319L123.789 226.054L122.984 226.043L97.1578 225.945L79.828 237.718L78.9221 238.34L78.1322 237.564L67.1861 226.459L1.37421 220.479L0.949235 230.894L25.9298 243.267L26.4063 243.485L26.5525 243.967L33.3904 263.337L33.5038 263.718L33.4321 264.097L29.2374 281.235L39.1483 286.368L39.429 286.524L39.6005 286.752L45.8481 295.159L46.6903 296.266L45.5403 297.044L28.3887 308.706L25.6681 335.107L31.6461 346.25L52.4572 342.701L54.3216 330.094L54.396 329.713L54.6539 329.435L67.2715 314.399L68.017 313.512L68.9873 314.085L90.7848 327.232L91.6856 327.789L91.3275 328.798L72.4877 380.114L81.5632 396.339L81.8662 396.874L81.6315 397.443L74.7777 415.059L74.5108 415.769L73.7611 415.901L53.789 419.413L47.9674 435.719L37.1305 494.203L45.3323 499.914L45.5565 500.076L45.6933 500.296L61.1075 525.08L69.3166 525.989L73.8186 501.47L74.001 500.57L74.9095 500.398L128.071 489.9L138.905 473.827L134.594 448.114L134.456 447.146L135.339 446.685L165.539 431.62L166.008 431.387L166.522 431.52L202.214 441.735L232.731 439.126L267.422 422.414L275.922 407.492L276.38 406.693L277.257 406.813L329.922 413.206L353.341 402.752L351.624 312.929L351.629 312.745L351.682 312.528L365.004 268.843L359.695 250.396L359.58 250.012L359.689 249.644L372.948 206.299L373.406 204.805L374.807 205.473L386.514 210.97L402.177 200.082L410.947 171.671L411.081 171.195L411.505 170.931L440.509 152.261L451.106 121.685L451.268 121.253L451.632 120.994L492.403 93.1023L495.6 73.7153L495.65 73.3498L495.872 73.0615L509.089 57.3505L509.665 36.2728L490.31 19.5225L489.89 19.1482L489.879 18.582L489.221 0.383728L480.261 3.96128L479.834 14.921L479.792 15.6419L479.192 16.0149L469.26 22.1921L463.668 41.8927L463.504 42.5682L462.821 42.8087L445.258 48.8089L441.762 69.4987L441.669 70.0416L441.215 70.3535L408.071 94.8018L407.699 95.0955L407.214 95.0628L190.095 83.2342L178.317 96.7531L178.157 96.941L177.901 97.071L108.254 130.812Z"/>
</mask>
<path fill-rule="evenodd" clip-rule="evenodd" d="M108.254 130.812L103.453 173.335L118.729 180.358L119.425 180.682L119.48 181.464L120.157 193.849L133.251 206.727L133.939 207.387L133.475 208.281L124.197 225.319L123.789 226.054L122.984 226.043L97.1578 225.945L79.828 237.718L78.9221 238.34L78.1322 237.564L67.1861 226.459L1.37421 220.479L0.949235 230.894L25.9298 243.267L26.4063 243.485L26.5525 243.967L33.3904 263.337L33.5038 263.718L33.4321 264.097L29.2374 281.235L39.1483 286.368L39.429 286.524L39.6005 286.752L45.8481 295.159L46.6903 296.266L45.5403 297.044L28.3887 308.706L25.6681 335.107L31.6461 346.25L52.4572 342.701L54.3216 330.094L54.396 329.713L54.6539 329.435L67.2715 314.399L68.017 313.512L68.9873 314.085L90.7848 327.232L91.6856 327.789L91.3275 328.798L72.4877 380.114L81.5632 396.339L81.8662 396.874L81.6315 397.443L74.7777 415.059L74.5108 415.769L73.7611 415.901L53.789 419.413L47.9674 435.719L37.1305 494.203L45.3323 499.914L45.5565 500.076L45.6933 500.296L61.1075 525.08L69.3166 525.989L73.8186 501.47L74.001 500.57L74.9095 500.398L128.071 489.9L138.905 473.827L134.594 448.114L134.456 447.146L135.339 446.685L165.539 431.62L166.008 431.387L166.522 431.52L202.214 441.735L232.731 439.126L267.422 422.414L275.922 407.492L276.38 406.693L277.257 406.813L329.922 413.206L353.341 402.752L351.624 312.929L351.629 312.745L351.682 312.528L365.004 268.843L359.695 250.396L359.58 250.012L359.689 249.644L372.948 206.299L373.406 204.805L374.807 205.473L386.514 210.97L402.177 200.082L410.947 171.671L411.081 171.195L411.505 170.931L440.509 152.261L451.106 121.685L451.268 121.253L451.632 120.994L492.403 93.1023L495.6 73.7153L495.65 73.3498L495.872 73.0615L509.089 57.3505L509.665 36.2728L490.31 19.5225L489.89 19.1482L489.879 18.582L489.221 0.383728L480.261 3.96128L479.834 14.921L479.792 15.6419L479.192 16.0149L469.26 22.1921L463.668 41.8927L463.504 42.5682L462.821 42.8087L445.258 48.8089L441.762 69.4987L441.669 70.0416L441.215 70.3535L408.071 94.8018L407.699 95.0955L407.214 95.0628L190.095 83.2342L178.317 96.7531L178.157 96.941L177.901 97.071L108.254 130.812Z" stroke="#2E5B97" stroke-width="2" mask="url(#path-1-inside-1_348_7205)"/>
</svg>
