<svg width="378" height="220" viewBox="0 0 378 220" fill="none" xmlns="http://www.w3.org/2000/svg">
<path d="M299.517 172.904L299.744 170.98L292.337 170.115L292.11 172.038C292.05 172.554 292.55 173.036 293.227 173.115L298.181 173.694C298.859 173.773 299.457 173.42 299.517 172.904Z" fill="#AA433A"/>
<path d="M281.663 163.384L282.301 157.961C282.677 154.765 285.578 152.478 288.782 152.853L307.203 155.006C310.407 155.381 312.7 158.275 312.324 161.471L311.686 166.894C311.31 170.09 308.408 172.377 305.206 172.002L286.784 169.849C283.58 169.474 281.287 166.579 281.663 163.384Z" fill="white"/>
<path d="M280.838 163.594L281.546 157.566C281.952 154.107 285.105 151.622 288.572 152.028L307.598 154.251C311.067 154.656 313.556 157.801 313.15 161.26L312.442 167.287C312.035 170.746 308.883 173.231 305.416 172.826L286.39 170.602C282.921 170.197 280.432 167.053 280.838 163.594ZM311.571 161.075C311.874 158.485 310.01 156.131 307.413 155.828L288.388 153.605C285.791 153.302 283.431 155.162 283.127 157.752L282.419 163.779C282.115 166.37 283.98 168.724 286.577 169.027L305.602 171.25C308.198 171.553 310.558 169.693 310.862 167.103L311.571 161.075Z" fill="#AA433A"/>
<path d="M311.546 70.5155C311.606 69.9998 311.106 69.5176 310.43 69.4389L305.475 68.8596C304.798 68.7809 304.199 69.1342 304.139 69.6499L303.912 71.5736L311.319 72.4392L311.546 70.5155Z" fill="#AA433A"/>
<path d="M291.969 75.6602L291.333 81.0832C290.957 84.2794 293.25 87.1742 296.454 87.5476L314.875 89.7007C318.079 90.0757 320.981 87.7887 321.356 84.5925L321.993 79.1695C322.369 75.9733 320.077 73.0785 316.872 72.7051L298.451 70.552C295.245 70.1769 292.343 72.464 291.969 75.6602Z" fill="white"/>
<path d="M290.505 81.2943L291.214 75.2669C291.62 71.8078 294.772 69.3232 298.24 69.7283L317.265 71.9518C320.734 72.357 323.224 75.5013 322.817 78.9603L322.109 84.9877C321.703 88.4468 318.551 90.9314 315.083 90.5262L296.058 88.3028C292.59 87.8959 290.099 84.7516 290.505 81.2943ZM321.238 78.7761C321.542 76.186 319.677 73.832 317.08 73.529L298.055 71.3055C295.458 71.0025 293.099 72.8626 292.795 75.4527L292.086 81.4801C291.783 84.0702 293.647 86.4242 296.244 86.7273L315.269 88.9507C317.866 89.2538 320.226 87.3936 320.53 84.8052L321.238 78.7761Z" fill="#AA433A"/>
<path d="M342.24 80.2129C335.015 77.7785 327.424 76.5898 319.798 76.4408L210.374 64.4362C209.52 64.3424 208.719 64.8615 208.456 65.6768L203.34 81.5674C203.234 81.8956 203.226 82.2455 203.313 82.5787L208.035 100.437C208.15 100.877 208.097 101.346 207.88 101.747L199.234 117.859C199.02 118.261 198.964 118.73 199.08 119.17L203.803 137.019C203.892 137.353 203.882 137.703 203.776 138.031L198.882 153.223C198.534 154.303 199.266 155.431 200.396 155.564C254.466 161.901 303.764 167.928 308.917 169.045C316.369 170.659 324.032 171.252 331.625 170.55C374.011 166.631 377.271 130.1 377.271 130.1C377.271 130.1 382.568 93.8013 342.24 80.2129Z" fill="#AA433A"/>
<path d="M308.834 135.479C309.566 136.403 310.912 136.561 311.84 135.831C312.769 135.099 312.926 133.758 312.193 132.832C311.461 131.908 310.115 131.751 309.187 132.481C308.259 133.212 308.103 134.553 308.834 135.479Z" fill="white"/>
<path d="M314.943 109.427C314.209 108.503 312.865 108.346 311.937 109.076C311.01 109.808 310.853 111.149 311.584 112.074C312.318 112.999 313.662 113.156 314.59 112.426C315.517 111.694 315.675 110.352 314.943 109.427Z" fill="white"/>
<path d="M276.731 128.687C275.997 127.763 274.653 127.605 273.725 128.335C272.798 129.067 272.641 130.408 273.372 131.334C274.106 132.258 275.45 132.415 276.379 131.685C277.307 130.954 277.464 129.611 276.731 128.687Z" fill="white"/>
<path d="M279.48 105.282C278.747 104.358 277.403 104.2 276.474 104.93C275.548 105.662 275.39 107.003 276.122 107.929C276.855 108.853 278.2 109.011 279.128 108.281C280.056 107.549 280.214 106.206 279.48 105.282Z" fill="white"/>
<path d="M209.889 95.067C209.035 91.9797 208.184 88.8923 207.318 85.81C206.992 84.653 206.324 83.2349 206.393 82.0211C206.477 80.5527 207.343 78.8232 207.762 77.4084C208.669 74.3596 209.565 71.3057 210.431 68.2451C209.093 71.9436 207.798 75.6571 206.517 79.374C205.988 80.9093 205.497 82.016 205.894 83.6284C206.314 85.3227 206.73 87.0171 207.155 88.7098C208.031 92.2023 208.974 95.6815 209.82 99.1824C210.678 102.735 208.132 105.799 206.5 108.804C205.674 110.326 204.87 111.858 204.06 113.389C203.229 114.957 202.054 116.615 201.472 118.293C200.997 119.66 201.749 121.246 202.109 122.58C202.61 124.434 203.116 126.287 203.63 128.137C204.08 129.761 204.528 131.385 204.981 133.008C205.463 134.729 206.299 136.614 206.024 138.426C205.523 141.699 204.088 145.038 203.158 148.225C202.762 149.585 202.37 150.944 201.982 152.306C203.315 148.584 204.61 144.85 205.908 141.116C206.384 139.747 206.955 138.429 206.821 136.949C206.703 135.658 206.255 134.374 205.943 133.122C205.203 130.15 204.461 127.176 203.694 124.213C203.199 122.303 201.972 119.938 202.9 118.09C204.117 115.664 205.507 113.313 206.792 110.922C208.174 108.354 209.938 105.709 210.933 102.968C211.863 100.403 210.557 97.5433 209.889 95.067C210.228 96.3227 209.196 92.5606 209.889 95.067Z" fill="white"/>
<path d="M73.7509 61.7959C73.6888 61.2802 73.0913 60.9286 72.4132 61.009L67.46 61.5983C66.7836 61.6787 66.2834 62.1609 66.3455 62.6766L66.5755 64.6003L73.9809 63.7197L73.7509 61.7959Z" fill="#AA433A"/>
<path d="M85.9312 67.7829L86.5791 73.2042C86.9601 76.3987 84.674 79.2985 81.4698 79.6786L63.0521 81.8669C59.8479 82.247 56.9425 79.9666 56.5614 76.7704L55.9136 71.3491C55.5325 68.1529 57.8186 65.2547 61.0228 64.8747L79.4406 62.6864C82.6431 62.3063 85.5502 64.5884 85.9312 67.7829Z" fill="white"/>
<path d="M55.8074 77.1691L55.0873 71.1434C54.6744 67.686 57.1585 64.5367 60.6262 64.1248L79.6483 61.8646C83.116 61.4527 86.2732 63.9306 86.6861 67.388L87.4061 73.4137C87.819 76.8711 85.3349 80.0204 81.8672 80.4323L62.8452 82.6926C59.3775 83.1061 56.2203 80.6265 55.8074 77.1691ZM85.105 67.5755C84.7961 64.9871 82.4329 63.1303 79.8363 63.4401L60.8142 65.7003C58.2177 66.0084 56.3579 68.3675 56.6668 70.9559L57.3868 76.9816C57.6957 79.57 60.0589 81.4268 62.6555 81.1171L81.6776 78.8568C84.2741 78.5487 86.1339 76.1897 85.825 73.6012L85.105 67.5755Z" fill="#AA433A"/>
<path d="M85.9781 164.161L85.7482 162.239L78.3428 163.12L78.5727 165.042C78.6348 165.558 79.2323 165.911 79.9104 165.829L84.8636 165.24C85.54 165.159 86.0402 164.677 85.9781 164.161Z" fill="#AA433A"/>
<path d="M96.4082 155.487L95.7603 150.066C95.3793 146.871 92.4722 144.589 89.2697 144.969L70.8519 147.157C67.6494 147.537 65.3616 150.437 65.7426 153.632L66.3905 159.053C66.7715 162.248 69.6786 164.53 72.8811 164.15L91.2989 161.96C94.5031 161.581 96.7909 158.681 96.4082 155.487Z" fill="white"/>
<path d="M65.6365 159.45L64.9164 153.424C64.5035 149.967 66.9877 146.817 70.4554 146.406L89.4774 144.145C92.9451 143.733 96.1023 146.211 96.5152 149.669L97.2353 155.694C97.6482 159.152 95.164 162.301 91.6963 162.713L72.6743 164.973C69.2066 165.387 66.0494 162.907 65.6365 159.45ZM94.9358 149.856C94.6269 147.266 92.2637 145.411 89.6671 145.721L70.6451 147.981C68.0485 148.289 66.1887 150.648 66.4976 153.237L67.2176 159.262C67.5265 161.851 69.8897 163.708 72.4863 163.398L91.5083 161.138C94.1049 160.83 95.9647 158.47 95.6558 155.882L94.9358 149.856Z" fill="#AA433A"/>
<path d="M187.72 127.362L178.957 111.102C178.74 110.7 178.685 110.233 178.801 109.791L183.443 92.1137C183.559 91.6734 183.504 91.2046 183.287 90.8044L174.522 74.5371C174.359 74.2341 174.286 73.8909 174.312 73.5476L175.519 57.6219C175.605 56.4901 174.633 55.5626 173.503 55.6965C118.19 62.2647 63.4869 68.5014 58.1057 68.6169C50.4821 68.781 42.8921 69.9848 35.673 72.4326C-4.63023 86.0997 0.73748 122.383 0.73748 122.383C0.73748 122.383 4.06756 158.907 46.4622 162.745C54.0573 163.433 61.7178 162.823 69.1668 161.196C74.4455 160.042 129.531 153.23 185.081 146.621C185.939 146.519 186.604 145.826 186.669 144.969L187.932 128.35C187.955 128.009 187.883 127.665 187.72 127.362Z" fill="#AA433A"/>
<path d="M66.0297 101.237C65.1016 100.507 63.7554 100.667 63.0253 101.593C62.2935 102.519 62.4546 103.862 63.3828 104.59C64.311 105.318 65.6571 105.159 66.3873 104.233C67.1191 103.308 66.9579 101.967 66.0297 101.237Z" fill="white"/>
<path d="M68.8244 124.636C67.8962 123.906 66.5501 124.067 65.82 124.993C65.0899 125.919 65.2493 127.262 66.1775 127.99C67.1057 128.718 68.4518 128.559 69.1819 127.633C69.9137 126.708 69.7543 125.366 68.8244 124.636Z" fill="white"/>
<path d="M101.484 97.0225C100.556 96.2941 99.2095 96.4532 98.4794 97.3791C97.7476 98.305 97.9087 99.6477 98.8369 100.376C99.7651 101.106 101.111 100.945 101.841 100.019C102.571 99.0935 102.412 97.7524 101.484 97.0225Z" fill="white"/>
<path d="M101.632 123.777C102.56 124.507 103.906 124.346 104.636 123.421C105.368 122.495 105.207 121.152 104.279 120.424C103.351 119.694 102.004 119.854 101.274 120.78C100.542 121.706 100.704 123.047 101.632 123.777Z" fill="white"/>
<path d="M185.254 127.624C183.648 124.5 182.018 121.39 180.386 118.278C179.551 116.684 178.706 115.093 177.86 113.505C177.129 112.128 176.474 111.094 176.766 109.506C177.424 105.922 178.69 102.361 179.598 98.8279C180.052 97.0598 180.613 95.2868 180.969 93.497C181.281 91.9231 180.924 90.8533 180.18 89.472C178.537 86.4198 176.847 83.3961 175.166 80.3639C174.297 78.7951 173.238 77.2381 172.499 75.6056C171.82 74.1055 172.135 72.5132 172.224 70.9143C172.434 67.1003 172.63 63.2846 172.783 59.4673C172.372 63.154 172.001 66.8458 171.642 70.5376C171.506 71.9323 171.108 73.5764 171.429 74.9644C171.804 76.5884 172.956 78.1807 173.72 79.6473C175.331 82.7397 176.952 85.8271 178.591 88.9044C179.366 90.361 180.146 91.4996 179.829 93.1973C179.495 94.9804 178.874 96.7618 178.404 98.5148C177.481 101.96 176.555 105.409 175.71 108.875C174.943 112.021 177.323 114.899 178.785 117.546C180.44 120.542 182.107 123.53 183.772 126.519C184.69 128.166 184.905 129.121 184.808 131.009C184.72 132.697 184.633 134.383 184.546 136.07C184.423 138.431 184.314 140.79 184.21 143.151C184.43 141.128 184.646 139.104 184.853 137.08C185.004 135.6 185.157 134.12 185.306 132.638C185.467 131.041 185.947 129.151 185.254 127.624C185.504 128.175 185.004 127.138 185.254 127.624Z" fill="white"/>
<path d="M219.596 30.9071L217.506 30.0884L214.295 34.9438L210.265 39.3655L209.768 44.9677L206.606 49.4012L207.368 50.4627L211.65 46.359L212.843 40.864L219.596 30.9071Z" fill="#AA433A"/>
<path d="M196.467 28.2365L196.705 18.8589L194.605 19.398L194.241 24.8109L194.354 29.5508L198.666 39.0071L198.79 39.0423L197.031 33.4134L196.467 28.2365Z" fill="#AA433A"/>
<path d="M177.92 22.621L175.731 16.4747L171.379 11.251L169.333 12.3878L173.794 17.7405L175.449 23.9889L183.749 34.1266L184.387 33.8504L177.92 22.621Z" fill="#AA433A"/>
<path d="M182.473 0L181.634 0.212633L183.284 8.3898L184.141 12.3528L184.151 17.2852L185.435 17.0676L185.409 8.72131L182.473 0Z" fill="#AA433A"/>
<path d="M169.292 38.4633L166.224 36.1428L162.464 32.5732L159.997 34.7632L167.049 40.0472L170.093 42.7395L173.678 45.8168L173.55 45.6962L169.292 38.4633Z" fill="#AA433A"/>
<path d="M206.692 28.8979L207.57 23.6993L209.953 19.172L208.839 13.7808L212.013 9.85131L210.133 8.87354L207.637 13.4125L207.548 18.7451L205.7 23.3041L205.336 28.6183L206.692 28.8979Z" fill="#AA433A"/>
<path d="M166.437 173.847L168.32 171.435L168.221 170.052L176.08 162.708L175.922 162.343L175.41 161.648L167.182 168.786L158.518 175.547L158.934 177.613L159.626 178.544L161.747 178.401L166.437 173.847Z" fill="#AA433A"/>
<path d="M181.785 179.593L182.282 176.733L180.068 180.442L180.095 186.737L179.502 192.79L182.074 191.889L181.223 180.382L181.785 179.593Z" fill="#AA433A"/>
<path d="M195.525 197.841L190.756 185.053L190.394 186.233L188.841 185.686L192.015 198.663L198.617 211.933L201.151 210.38L197.779 204.21L195.525 197.841Z" fill="#AA433A"/>
<path d="M184.647 201.124L183.308 210.42L183.41 220L183.87 219.925L185.731 210.736L186.396 201.364L185.56 201.916L184.647 201.124Z" fill="#AA433A"/>
<path d="M214.463 185.99L211.863 181.231L208.476 178.173L204.879 174.719L204.266 175.186L204.375 175.134L210.065 182.555L209.651 183.491L211.784 186.315L212.417 191.311L215.607 190.871L214.463 185.99Z" fill="#AA433A"/>
<path d="M171.422 183.563L164.848 192.493L161.523 202.948L162.752 203.606L166.711 193.508L173.24 184.743L171.953 183.534L171.422 183.563Z" fill="#AA433A"/>
</svg>
