<svg width="48" height="48" viewBox="0 0 48 48" fill="none" xmlns="http://www.w3.org/2000/svg">
<rect width="48" height="48" rx="24" fill="white"/>
<path d="M16.0258 30.5276C18.8807 25.0912 20.3099 22.3729 22.362 21.7245C23.4246 21.3894 24.5754 21.3894 25.638 21.7245C27.6901 22.3729 29.1193 25.0912 31.9742 30.5276L33.5546 33.5423C34.2927 34.9452 34.6599 35.6475 34.7481 36.1258C35.1099 38.1114 33.542 39.9404 31.4252 39.9994C30.9158 40.0128 30.1202 39.8091 28.5271 39.3998C27.926 39.2371 27.3197 39.0917 26.7091 38.9636C24.9212 38.6248 23.0788 38.6248 21.2909 38.9636C20.8373 39.0495 20.3819 39.1657 19.4729 39.4015C17.8798 39.8091 17.0842 40.0128 16.5748 39.9994C14.4598 39.9404 12.8901 38.1114 13.2519 36.1258C13.3383 35.6475 13.7073 34.9469 14.4454 33.5406L16.0258 30.5276ZM13.4607 13.9403C14.2024 16.6872 16.2976 18.5162 18.1409 18.0261C19.9859 17.5343 20.8805 14.9104 20.1389 12.1652C19.3973 9.41833 17.302 7.58932 15.4588 8.07942C13.6137 8.57119 12.7191 11.1951 13.4607 13.9403ZM34.5393 13.9403C33.7976 16.6872 31.7024 18.5162 29.8591 18.0261C28.0141 17.5343 27.1195 14.9104 27.8611 12.1652C28.6027 9.41833 30.698 7.58932 32.5412 8.07942C34.3863 8.57119 35.2809 11.1951 34.5393 13.9403ZM6.36316 25.3421C7.17318 27.3715 9.07763 28.6043 10.6167 28.0957C12.1557 27.5871 12.7461 25.529 11.9361 23.4979C11.1261 21.4702 9.22163 20.2374 7.6826 20.746C6.14356 21.2546 5.55314 23.3127 6.36316 25.3438V25.3421ZM41.6368 25.3421C40.8268 27.3715 38.9224 28.6043 37.3833 28.0957C35.8443 27.5871 35.2539 25.529 36.0639 23.4979C36.8739 21.4702 38.7784 20.2374 40.3174 20.746C41.8564 21.2546 42.4469 23.3127 41.6368 25.3438V25.3421Z" stroke="#222222" stroke-width="2"/>
</svg>
