<svg width="192" height="60" viewBox="0 0 192 60" fill="none" xmlns="http://www.w3.org/2000/svg">
<path d="M55.0588 9.18091H50.7634H45.4267H29.6118C27.0085 9.18091 24.7306 10.7972 23.8195 13.1895L13.927 40.1507C13.0159 42.5429 10.738 44.1593 8.13477 44.1593H12.4301H16.9859H33.6468C36.2501 44.1593 38.528 42.5429 39.4391 40.1507L49.3316 13.1895C50.1776 10.7972 52.5205 9.18091 55.0588 9.18091Z" fill="#D5AE75"/>
<path d="M21.9976 12.5431C23.1692 9.375 26.228 7.30603 29.5471 7.30603H32.0854L33.5823 3.29741C34.2981 1.35776 36.1855 0 38.2681 0H34.7537H30.3932H17.507C15.4244 0 13.537 1.2931 12.8211 3.29741L4.68589 25.2802C3.96999 27.2198 2.08262 28.5776 0 28.5776H3.51442H7.22409H16.1403L21.9976 12.5431Z" fill="#E6D4B6"/>
<path d="M62.1541 21.2717H62.935C63.4558 21.2717 63.9113 21.3364 64.3669 21.4657C64.8224 21.595 65.1479 21.789 65.4733 22.1122C65.7987 22.3709 66.059 22.7588 66.1892 23.1467C66.3844 23.5347 66.4495 23.9872 66.4495 24.5045C66.4495 25.0217 66.3844 25.4743 66.1892 25.9269C65.9939 26.3148 65.7336 26.7027 65.4082 26.9614C65.0828 27.22 64.6923 27.4787 64.3018 27.6079C63.8462 27.7372 63.3907 27.8019 62.935 27.8019H62.1541V28.901H60.2017V27.8019H59.4206C58.9 27.8019 58.4444 27.7372 57.9889 27.6079C57.5333 27.4787 57.2079 27.2847 56.8825 26.9614C56.5571 26.7027 56.3618 26.3148 56.1666 25.9269C55.9714 25.539 55.9062 25.0864 55.9062 24.5692C55.9062 24.0519 55.9714 23.5993 56.1666 23.1467C56.3618 22.7588 56.6222 22.3709 56.9475 22.1122C57.2729 21.8537 57.6635 21.595 58.054 21.4657C58.5095 21.3364 58.9 21.2717 59.4206 21.2717H60.2017V20.1079H62.1541V21.2717ZM59.4858 22.9527C58.9651 22.9527 58.5095 23.0821 58.2492 23.4053C57.9889 23.664 57.7936 24.1166 57.7936 24.5692C57.7936 25.0864 57.9238 25.4743 58.2492 25.7329C58.5746 25.9916 58.9651 26.1208 59.4858 26.1208H60.2017V22.9527H59.4858ZM62.8049 26.1855C63.3256 26.1855 63.7812 26.0562 64.0415 25.7329C64.3018 25.4743 64.497 25.0217 64.497 24.5692C64.497 24.0519 64.3669 23.664 64.0415 23.4053C63.7161 23.1467 63.3256 23.0174 62.8049 23.0174H62.089V26.1855H62.8049Z" fill="white"/>
<path d="M74.5179 20.4958C75.1037 20.7544 75.5593 21.013 75.9497 21.4656C76.3402 21.8535 76.6656 22.3708 76.8609 22.888C77.0562 23.4053 77.1863 24.0519 77.1863 24.6984C77.1863 25.3449 77.0562 25.9269 76.8609 26.444C76.6656 26.9613 76.3402 27.4785 75.8847 27.8664C75.4942 28.2544 74.9735 28.5777 74.4529 28.8363C73.8671 29.0949 73.2814 29.1596 72.5655 29.1596C71.9147 29.1596 71.2638 29.0303 70.7432 28.8363C70.1575 28.5777 69.7019 28.319 69.3114 27.8664C68.9209 27.4785 68.5955 26.9613 68.3352 26.444C68.14 25.9269 68.0098 25.2803 68.0098 24.6984C68.0098 24.0519 68.14 23.4699 68.3352 22.9527C68.5304 22.4354 68.8558 21.9182 69.3114 21.5303C69.7019 21.1424 70.2226 20.8191 70.7432 20.5604C71.3289 20.3019 71.9147 20.2372 72.5655 20.2372C73.3465 20.1725 73.9322 20.2372 74.5179 20.4958ZM71.5242 22.1122C71.1987 22.2414 70.9384 22.4354 70.6781 22.694C70.4178 22.9527 70.2876 23.2113 70.1575 23.5993C70.0273 23.9225 69.9623 24.3104 69.9623 24.6984C69.9623 25.0863 70.0273 25.4743 70.1575 25.7975C70.2876 26.1208 70.4829 26.444 70.6781 26.7027C70.9384 26.9613 71.1987 27.1553 71.5242 27.2846C71.8496 27.4139 72.2401 27.4785 72.6306 27.4785C73.0211 27.4785 73.4116 27.4139 73.737 27.2846C74.0624 27.1553 74.3227 26.9613 74.583 26.7027C74.8433 26.444 74.9735 26.1854 75.1037 25.7975C75.2339 25.4743 75.299 25.0863 75.299 24.763C75.299 24.3751 75.2339 23.9872 75.1037 23.6639C74.9735 23.3406 74.7782 23.0174 74.583 22.7587C74.3227 22.5001 74.0624 22.3061 73.737 22.1769C73.4116 22.0475 73.0211 21.9829 72.6306 21.9829C72.2401 21.8535 71.8496 21.9182 71.5242 22.1122Z" fill="white"/>
<path d="M81.1576 23.7283H84.9319V20.3662H86.8849V28.9653H84.9319V25.5386H81.1576V28.9653H79.2051V20.3015H81.1576V23.7283Z" fill="white"/>
<path d="M97.232 27.2199H98.4689V27.7371L98.2736 30.776H96.5159L96.4508 28.9656H90.5934L90.4632 30.776H88.7064L88.5762 27.8018V27.2845H88.9668C89.1621 27.2845 89.3574 27.2199 89.4876 27.0906C89.6829 26.9613 89.8131 26.7673 89.9424 26.5087C90.2028 25.9915 90.333 25.3449 90.4632 24.5044C90.5934 23.6639 90.5934 22.8234 90.5934 21.7889V20.3665H97.1669V27.2199H97.232ZM92.4162 25.151C92.286 25.9915 92.0907 26.7026 91.8303 27.1552H95.3449V21.9829H92.6766C92.6115 23.276 92.5464 24.3105 92.4162 25.151Z" fill="white"/>
<path d="M63.9108 44.3533H61.9583V37.5645H58.3138V44.418H56.3613V35.7542H63.9108V44.3533Z" fill="white"/>
<path d="M71.59 36.0128C71.9805 36.1421 72.3709 36.4007 72.6963 36.6593C73.0217 36.918 73.217 37.2412 73.4123 37.6292C73.6075 38.0171 73.6726 38.4051 73.6726 38.9222C73.6726 39.4395 73.6075 39.8921 73.4123 40.2801C73.217 40.668 72.9567 40.9912 72.6313 41.2498C72.3059 41.5085 71.9154 41.7025 71.4598 41.8964C71.0042 42.0257 70.5487 42.0904 70.028 42.0904H68.2708V44.418H66.3184V35.7542H70.1582C70.6788 35.7542 71.1344 35.8188 71.59 36.0128ZM70.028 40.2801C70.5487 40.2801 70.9391 40.1507 71.2645 39.8921C71.5249 39.6335 71.7202 39.3102 71.7202 38.8577C71.7202 38.4051 71.59 38.0817 71.3296 37.8231C71.0693 37.5645 70.6788 37.4352 70.1582 37.4352H68.3359V40.2801H70.028Z" fill="white"/>
<path d="M81.9372 37.4999H77.3815V39.1162H81.4817V40.7972H77.3815V42.6077H82.1976V44.3533H75.4941V35.7542H82.0023V37.4999H81.9372Z" fill="white"/>
<path d="M88.6406 38.9224C88.8359 38.7931 88.901 38.5992 88.901 38.3405C88.901 38.0173 88.7708 37.7587 88.5755 37.6294C88.3151 37.4354 87.9896 37.3708 87.4696 37.3708C86.6884 37.3708 85.9072 37.6294 85.1911 38.2113L84.1504 36.9181C84.6061 36.5302 85.126 36.2069 85.7119 36.0129C86.2978 35.819 86.8837 35.6897 87.5347 35.6897C88.0547 35.6897 88.5104 35.7544 88.901 35.8837C89.2916 36.0129 89.6822 36.1423 89.9426 36.4009C90.203 36.5949 90.4634 36.8535 90.5936 37.1768C90.7238 37.5 90.7889 37.8234 90.7889 38.1466C90.7889 38.5345 90.7238 38.8578 90.5936 39.1164C90.4634 39.4397 90.203 39.6337 89.9426 39.8276V39.9569C90.3332 40.0863 90.6587 40.3449 90.9191 40.6681C91.1787 40.9914 91.2438 41.3794 91.2438 41.8966C91.2438 42.2845 91.1787 42.6724 90.9834 42.9957C90.854 43.319 90.5936 43.6423 90.2681 43.9009C89.9426 44.1595 89.552 44.3535 89.0963 44.4828C88.6406 44.6121 88.0547 44.6768 87.4696 44.6768C87.079 44.6768 86.7535 44.6768 86.428 44.6121C86.1025 44.5474 85.777 44.4828 85.4515 44.4181C85.126 44.2889 84.8665 44.1595 84.6061 44.0302C84.3457 43.9009 84.0853 43.7069 83.7598 43.4483L84.8014 42.0259C85.2562 42.3492 85.7119 42.6078 86.1676 42.8018C86.6233 42.9311 87.079 42.9957 87.6649 42.9957C88.25 42.9957 88.6406 42.8664 88.9661 42.6724C89.2916 42.4785 89.3567 42.1552 89.3567 41.8319C89.3567 41.25 88.9661 40.9268 88.1849 40.9268H85.9723V39.2457H87.9253C88.25 39.1164 88.5104 39.0518 88.6406 38.9224Z" fill="white"/>
<path d="M95.1494 41.5085L99.315 35.7542H101.007V44.3533H99.0546V38.9222L95.0843 44.3533H93.1973V35.7542H95.0843V41.5085H95.1494Z" fill="white"/>
<path d="M111.419 42.6077H112.656V43.1248L112.461 46.1637H110.703L110.638 44.3533H104.781L104.651 46.1637H102.894L102.764 43.1895V42.6722H103.154C103.35 42.6722 103.545 42.6077 103.675 42.4783C103.87 42.349 104.001 42.1551 104.13 41.8964C104.39 41.3792 104.521 40.7327 104.651 39.8921C104.781 39.0516 104.781 38.1464 104.781 37.1766V35.7542H111.354V42.6077H111.419ZM106.539 40.6033C106.408 41.4438 106.213 42.1551 105.953 42.6077H109.467V37.4352H106.734C106.734 38.7283 106.669 39.7628 106.539 40.6033Z" fill="white"/>
<path d="M120.988 37.4999H116.432V39.1162H120.532V40.7972H116.432V42.6077H121.248V44.3533H114.545V35.7542H121.053V37.4999H120.988Z" fill="white"/>
<path d="M125.218 39.1162H128.993V35.7542H130.945V44.3533H128.993V40.9266H125.218V44.3533H123.266V35.7542H125.218V39.1162Z" fill="white"/>
<path d="M140.577 37.4999H137.583V44.3533H135.631V37.4999H132.768V35.7542H140.577V37.4999Z" fill="white"/>
<path d="M147.866 37.5644C147.475 37.4351 147.02 37.3705 146.565 37.3705C146.174 37.3705 145.783 37.4351 145.393 37.5644C145.067 37.6938 144.742 37.8877 144.547 38.1463C144.287 38.4049 144.092 38.6636 143.961 38.9868C143.831 39.3101 143.766 39.6981 143.766 40.086C143.766 40.4739 143.831 40.8618 143.961 41.1851C144.092 41.5084 144.287 41.8317 144.547 42.0257C144.807 42.2843 145.067 42.4136 145.393 42.6075C145.718 42.7368 146.109 42.8015 146.5 42.8015C147.02 42.8015 147.475 42.7368 147.866 42.5428C148.321 42.3489 148.647 42.1549 149.038 41.8317L150.144 43.1894C149.168 44.0946 147.931 44.5472 146.434 44.5472C145.783 44.5472 145.132 44.4178 144.612 44.2239C144.027 44.0299 143.571 43.7067 143.18 43.3188C142.79 42.9308 142.464 42.4783 142.269 41.8963C142.074 41.3791 141.943 40.7325 141.943 40.086C141.943 39.4394 142.074 38.8575 142.269 38.3403C142.464 37.8231 142.79 37.3058 143.245 36.9179C143.636 36.5299 144.157 36.2067 144.742 35.9481C145.328 35.6894 145.979 35.6248 146.76 35.6248C147.41 35.6248 148.061 35.7541 148.582 35.9481C149.168 36.142 149.623 36.4653 150.079 36.8533L149.038 38.2757C148.647 37.8877 148.256 37.6938 147.866 37.5644Z" fill="white"/>
<path d="M153.854 39.0516L154.83 38.9222L157.303 35.7542H159.712L156.523 39.7628L160.037 44.3533H157.499L154.83 40.668H153.854V44.3533H151.967V35.7542H153.854V39.0516Z" fill="white"/>
<path d="M163.617 41.5085L167.782 35.7542H169.474V44.3533H167.521V38.9222L163.552 44.3533H161.664V35.7542H163.552V41.5085H163.617Z" fill="white"/>
<path d="M175.721 38.8577H175.851L177.544 35.7542H179.951L177.153 40.0214L180.212 44.418H177.673L175.721 41.1206H175.59L173.703 44.418H171.23L174.289 39.9567L171.491 35.8188H173.899L175.721 38.8577Z" fill="white"/>
<path d="M62.9346 52.9525H58.3138V59.806H56.3613V51.2068H62.9346V52.9525Z" fill="white"/>
<path d="M69.8986 51.4008C70.2891 51.5301 70.6796 51.7887 71.005 52.0473C71.3304 52.306 71.5256 52.6292 71.7208 53.0171C71.9161 53.4051 71.9812 53.793 71.9812 54.3103C71.9812 54.8275 71.9161 55.2801 71.7208 55.668C71.5256 56.056 71.2653 56.3792 70.9399 56.6379C70.6145 56.8965 70.224 57.0905 69.7684 57.2844C69.3128 57.4137 68.8573 57.4784 68.3367 57.4784H66.5795V59.806H64.627V51.2068H68.4668C69.0525 51.2068 69.5081 51.2715 69.8986 51.4008ZM68.3367 55.7327C68.8573 55.7327 69.2478 55.6034 69.5732 55.3447C69.8335 55.0861 70.0287 54.7629 70.0287 54.3103C70.0287 53.8577 69.8985 53.5344 69.6382 53.2758C69.3779 53.0171 68.9875 52.8879 68.4668 52.8879H66.6445V55.7327H68.3367Z" fill="white"/>
<path d="M81.8725 59.806H79.7248L79.074 58.1249H75.3643L74.7135 59.806H72.6309L76.2104 51.2068H78.3581L81.8725 59.806ZM78.4232 56.3792L77.2517 53.0818H77.1215L75.95 56.3792H78.4232Z" fill="white"/>
<path d="M85.583 54.5689H89.358V51.2068H91.311V59.806H89.358V56.3792H85.583V59.806H83.6309V51.2068H85.583V54.5689Z" fill="white"/>
<path d="M100.942 52.9525H97.9487V59.806H95.9957V52.9525H93.002V51.2068H100.877V52.9525H100.942Z" fill="white"/>
<path d="M108.686 51.3363C109.272 51.5949 109.728 51.8535 110.118 52.3061C110.508 52.694 110.834 53.2113 111.029 53.7285C111.224 54.2457 111.354 54.8923 111.354 55.5389C111.354 56.1854 111.224 56.7673 111.029 57.2845C110.834 57.8018 110.508 58.319 110.053 58.7069C109.663 59.0949 109.142 59.4181 108.621 59.6768C108.035 59.9354 107.45 60 106.734 60C106.083 60 105.432 59.8707 104.911 59.6768C104.326 59.4828 103.87 59.1595 103.48 58.7069C103.089 58.319 102.764 57.8018 102.503 57.2845C102.308 56.7673 102.178 56.1207 102.178 55.5389C102.178 54.8923 102.308 54.3104 102.503 53.7931C102.699 53.2759 103.024 52.7587 103.48 52.3708C103.87 51.9828 104.391 51.6595 104.911 51.4009C105.497 51.1423 106.083 51.0776 106.734 51.0776C107.514 51.0129 108.1 51.1423 108.686 51.3363ZM105.692 52.9526C105.367 53.0819 105.106 53.2759 104.846 53.5345C104.586 53.7931 104.456 54.0518 104.326 54.4397C104.196 54.7629 104.131 55.1509 104.131 55.5389C104.131 55.9268 104.196 56.3147 104.326 56.6379C104.456 56.9613 104.651 57.2845 104.846 57.5431C105.106 57.8018 105.367 57.9957 105.692 58.125C106.018 58.2544 106.408 58.319 106.799 58.319C107.19 58.319 107.579 58.2544 107.905 58.125C108.23 57.9957 108.491 57.8018 108.751 57.5431C109.012 57.2845 109.142 57.0259 109.272 56.6379C109.402 56.3147 109.467 55.9268 109.467 55.6035C109.467 55.2155 109.402 54.8276 109.272 54.5044C109.142 54.1811 108.946 53.8578 108.751 53.5992C108.491 53.3405 108.23 53.1466 107.905 53.0173C107.579 52.8879 107.19 52.8234 106.799 52.8234C106.408 52.7587 106.018 52.8234 105.692 52.9526Z" fill="white"/>
<path d="M119.426 51.7887C119.947 52.1766 120.207 52.7585 120.207 53.5344C120.207 53.9223 120.142 54.2456 120.011 54.5042C119.882 54.7629 119.687 55.0215 119.426 55.1508V55.2801C119.817 55.4094 120.207 55.668 120.467 55.9913C120.728 56.3792 120.858 56.7671 120.858 57.2197C120.858 57.543 120.793 57.931 120.662 58.1895C120.532 58.5129 120.337 58.7715 120.077 59.0301C119.817 59.2887 119.491 59.418 119.101 59.612C118.71 59.7413 118.189 59.806 117.669 59.806H113.504V51.2068H117.343C118.189 51.2068 118.906 51.4008 119.426 51.7887ZM117.278 54.5689C117.604 54.5689 117.864 54.5042 118.059 54.3103C118.255 54.181 118.32 53.9223 118.32 53.6637C118.32 53.0818 117.929 52.8232 117.213 52.8232H115.326V54.5689H117.278ZM117.604 58.1249C118.45 58.1249 118.906 57.8016 118.906 57.0905C118.906 56.7671 118.775 56.5085 118.58 56.3792C118.385 56.1853 118.059 56.1206 117.604 56.1206H115.326V58.1249H117.604Z" fill="white"/>
</svg>
