<svg width="48" height="48" viewBox="0 0 48 48" fill="none" xmlns="http://www.w3.org/2000/svg">
<rect width="48" height="48" rx="24" fill="white"/>
<path d="M15.3339 14.9333C17.2484 14.9333 18.8005 13.3813 18.8005 11.4667C18.8005 9.55208 17.2484 8 15.3339 8C13.4193 8 11.8672 9.55208 11.8672 11.4667C11.8672 13.3813 13.4193 14.9333 15.3339 14.9333Z" stroke="#222222" stroke-width="2" stroke-linecap="round" stroke-linejoin="round"/>
<path d="M30.9335 14.9333C32.8481 14.9333 34.4001 13.3813 34.4001 11.4667C34.4001 9.55208 32.8481 8 30.9335 8C29.0189 8 27.4668 9.55208 27.4668 11.4667C27.4668 13.3813 29.0189 14.9333 30.9335 14.9333Z" stroke="#222222" stroke-width="2" stroke-linecap="round" stroke-linejoin="round"/>
<path d="M11 20.1335H19.6667L17.9333 39.2002H12.7333L11 20.1335ZM26.6 20.1335H35.2667L37 29.6669H34.4L33.5333 39.2002H28.3333L27.4667 29.6669H24.8667L26.6 20.1335Z" stroke="#222222" stroke-width="2" stroke-linecap="round"/>
</svg>
