<svg width="144" height="22" viewBox="0 0 144 22" fill="none" xmlns="http://www.w3.org/2000/svg">
<mask id="mask0_868_1032" style="mask-type:luminance" maskUnits="userSpaceOnUse" x="0" y="0" width="144" height="22">
<path d="M144 0.5H0V21.5H144V0.5Z" fill="white"/>
</mask>
<g mask="url(#mask0_868_1032)">
<path d="M5.69059 4.16846C8.78355 4.16846 11.268 6.52675 11.268 9.72354C11.268 12.8679 8.73284 15.2786 5.8427 15.2786C4.47369 15.2786 3.15538 14.8594 2.192 13.7064H2.09059V21.777H0.0117188V10.562C0.0117188 6.68397 2.192 4.16846 5.69059 4.16846ZM5.63988 13.392C7.66805 13.392 9.08777 11.715 9.08777 9.67113C9.08777 7.67969 7.71876 6.00268 5.63988 6.00268C3.56101 6.00268 2.14129 7.62728 2.14129 9.67113C2.14129 11.715 3.61172 13.392 5.63988 13.392Z" fill="white"/>
<path d="M13.1953 9.72354C13.1953 6.52675 15.7812 4.16846 18.8234 4.16846C21.8657 4.16846 24.4516 6.52675 24.4516 9.72354C24.4516 12.9203 21.8657 15.2786 18.8234 15.2786C15.7812 15.2786 13.1953 12.9203 13.1953 9.72354ZM18.8234 13.392C20.9023 13.392 22.2713 11.7674 22.2713 9.72354C22.2713 7.67969 20.8516 6.05509 18.8234 6.05509C16.7953 6.05509 15.3756 7.67969 15.3756 9.72354C15.3756 11.7674 16.7446 13.392 18.8234 13.392Z" fill="white"/>
<path d="M32.0578 15.2786C28.8127 15.2786 26.3789 12.9203 26.3789 9.72354C26.3789 6.52675 28.762 4.16846 32.007 4.16846C34.4916 4.16846 36.7732 5.53102 37.3817 8.20375H35.2521C34.7451 6.78878 33.4775 6.05509 32.0578 6.05509C29.8775 6.05509 28.5592 7.73209 28.5592 9.77594C28.5592 11.8198 29.9282 13.4444 32.1085 13.4444C33.5282 13.4444 34.7958 12.7631 35.3028 11.2433H37.4324C36.6718 13.9685 34.4409 15.2786 32.0578 15.2786Z" fill="white"/>
<path d="M45.0874 13.7589L41.6902 6.42202H41.6395V15.0691H39.6621V4.37817H42.8057L46.1522 11.6627H46.2029L49.5494 4.37817H52.6931V15.0167H50.7156V6.42202H50.6649L47.2677 13.7589H45.0874Z" fill="white"/>
<path d="M54.9238 9.72354C54.9238 6.52675 57.5097 4.16846 60.552 4.16846C63.5942 4.16846 66.1802 6.52675 66.1802 9.72354C66.1802 12.9203 63.5942 15.2786 60.552 15.2786C57.5097 15.2786 54.9238 12.9203 54.9238 9.72354ZM60.6027 13.392C62.6816 13.392 64.0506 11.7674 64.0506 9.72354C64.0506 7.67969 62.6309 6.05509 60.6027 6.05509C58.5238 6.05509 57.1548 7.67969 57.1548 9.72354C57.1041 11.7674 58.5238 13.392 60.6027 13.392Z" fill="white"/>
<path d="M67.2461 15.1214V12.9203H67.2968C67.7024 12.9203 68.1588 12.7631 68.463 12.3963C68.8686 11.977 69.0207 11.1385 69.2236 9.98558L69.5278 8.25616C69.8827 6.31713 70.5419 4.32568 73.3813 4.32568H77.3869V15.0166H75.3081V6.31713H73.6855C72.063 6.31713 71.7588 6.78878 71.3531 9.04226L71.0996 10.6145C70.8461 12.0818 70.4912 13.3396 69.7813 14.1257C69.2236 14.7546 68.463 15.069 67.3982 15.069H67.2461V15.1214Z" fill="white"/>
<path d="M79.7188 9.72354C79.7188 6.52675 82.3047 4.16846 85.347 4.16846C88.3892 4.16846 90.9751 6.52675 90.9751 9.72354C90.9751 12.9203 88.3892 15.2786 85.347 15.2786C82.3047 15.2786 79.7188 12.9203 79.7188 9.72354ZM85.347 13.392C87.4258 13.392 88.7949 11.7674 88.7949 9.72354C88.7949 7.67969 87.3751 6.05509 85.347 6.05509C83.2681 6.05509 81.899 7.67969 81.899 9.72354C81.899 11.7674 83.3188 13.392 85.347 13.392Z" fill="white"/>
<path d="M93.4091 17.6369H91.4316V13.0776H92.75C93.3584 12.3963 93.6626 11.3481 93.9162 10.1428L94.3725 8.15135C94.7781 6.26472 95.5894 4.32568 98.1246 4.32568H102.131V13.0776H103.601V17.6369H101.623V15.069H93.3584V17.6369H93.4091ZM100.102 13.13V6.31713H98.1753C96.9077 6.31713 96.5021 7.36526 96.2485 8.46579L95.7922 10.5096C95.5387 11.6626 95.1838 12.6059 94.7781 12.9727V13.13H100.102Z" fill="white"/>
<path d="M110.8 15.2786C107.504 15.2786 105.121 12.9203 105.121 9.72353C105.121 6.52674 107.504 4.16845 110.699 4.16845C113.183 4.16845 116.124 5.84546 116.124 9.88075V10.3H107.149C107.352 12.0818 108.721 13.392 110.749 13.392C111.966 13.392 113.386 12.9203 113.792 11.8722H115.921C115.313 14.2305 112.93 15.2786 110.8 15.2786ZM107.251 0.5H109.38V2.70107H107.251V0.5ZM114.045 8.6754C113.741 7.0508 112.524 6.00267 110.699 6.00267C108.924 6.00267 107.656 7.15562 107.301 8.6754H114.045ZM111.865 0.5H113.994V2.70107H111.865V0.5Z" fill="white"/>
<path d="M125.911 4.37817V8.62309H127.635L130.069 4.37817H132.35L129.308 9.4616L132.553 15.0167H130.221L127.635 10.5097H125.86V15.0167H123.933V10.5097H122.209L119.624 15.0167H117.291L120.536 9.4616L117.494 4.37817H119.776L122.209 8.62309H123.933V4.37817H125.911Z" fill="white"/>
<path d="M134.024 10.2477L133.973 4.37817H136.052V7.41775H136.102C136.964 6.31721 138.08 5.79315 139.398 5.79315C141.933 5.79315 143.962 7.73219 143.962 10.4573C143.962 13.2349 141.883 15.2787 138.993 15.2787C136.153 15.2787 134.024 13.1825 134.024 10.2477ZM138.993 13.3921C140.615 13.3921 141.832 12.1867 141.832 10.5621C141.832 8.93753 140.615 7.67978 138.993 7.67978C137.37 7.67978 136.204 8.88513 136.204 10.5621C136.204 12.2391 137.37 13.3921 138.993 13.3921Z" fill="white"/>
</g>
</svg>
