<svg width="79" height="60" viewBox="0 0 79 60" fill="none" xmlns="http://www.w3.org/2000/svg">
<g clip-path="url(#clip0_868_1047)">
<path fill-rule="evenodd" clip-rule="evenodd" d="M27.5104 60C29.5486 60.0058 31.5638 58.9968 32.7648 57.7169L31.431 55.3474C30.7901 56.2987 29.514 57.3537 27.6952 57.4517C24.837 57.6074 22.562 55.3589 22.562 52.6088C22.562 47.8812 28.5844 46.0536 31.3213 49.7204L32.6378 47.3739C31.4599 46.1574 29.6064 45.2176 27.597 45.2234C23.3877 45.2407 20.0156 48.4059 20.0156 52.6088C20.0156 56.8175 23.3588 59.9885 27.5104 60Z" fill="#163E73"/>
<path d="M44.4231 59.5848H47.3736L43.0431 52.0322L46.9637 45.2349H43.99L40.4909 51.3404L37.9272 51.3231L37.9099 45.2349H35.1152L35.1326 59.5848H37.9272V53.7964L41.103 53.7906L44.4231 59.5848Z" fill="#163E73"/>
<path d="M65.1053 52.4936C65.1053 48.1696 62.2587 45.5867 57.2064 45.3042H54.6369C49.5846 45.5867 46.7148 48.1465 46.7148 52.4936C46.7148 56.8118 49.5846 59.3717 54.6369 59.6542H57.2064C62.2587 59.4178 65.1053 56.8118 65.1053 52.4936ZM57.2064 57.2615V47.7199C60.59 47.9793 62.4319 49.5763 62.4319 52.4648C62.4319 55.359 60.6304 56.979 57.2064 57.2615ZM49.4344 52.4936C49.4344 49.5763 51.1898 48.0024 54.6369 47.7199V57.2615C51.3168 56.956 49.4344 55.382 49.4344 52.4936Z" fill="#163E73"/>
<path d="M76.1507 45.3042C74.7418 47.9332 73.535 50.3085 71.9587 53.0067L67.784 45.3042H64.9316L70.4979 55.5838C69.8858 56.5236 69.1871 57.446 67.9457 57.446C67.6859 57.446 67.4145 57.4114 67.1258 57.348L68.3903 59.6369C70.0417 59.6542 71.491 59.0142 72.7498 56.7081L78.9973 45.3042H76.1507Z" fill="#163E73"/>
<path fill-rule="evenodd" clip-rule="evenodd" d="M0.544922 29.115C3.92276 33.2084 8.5709 35.8893 13.8369 36.5869C13.6694 36.7598 13.5366 37.0135 13.398 37.1692C9.36773 37.5151 5.72428 36.6618 2.2656 34.546C1.55539 32.8279 0.920237 30.9945 0.544922 29.115Z" fill="#163E73"/>
<path fill-rule="evenodd" clip-rule="evenodd" d="M15.3614 34.938C15.142 35.1397 14.784 35.4972 14.6166 35.699C8.44406 34.4075 3.36864 30.637 0.0831807 25.2752C-0.159331 21.8967 0.15247 18.5586 1.04745 15.2954C2.28888 23.9031 7.50288 31.1271 15.3614 34.938Z" fill="#163E73"/>
<path fill-rule="evenodd" clip-rule="evenodd" d="M17.861 32.9836C17.3587 33.3064 16.6023 33.808 16.0999 34.2577C7.85454 29.0804 3.29879 20.6976 2.63477 11.0868C5.20423 6.07668 7.44458 3.41885 11.6192 0C6.01261 12.4359 9.87547 25.4252 17.861 32.9836Z" fill="#163E73"/>
<path fill-rule="evenodd" clip-rule="evenodd" d="M24.2425 5.98438C30.5536 10.0144 39.3591 21.4182 35.2479 31.6863C31.9625 39.8789 25.2703 41.9429 22.9665 43.4015C20.6568 44.8544 16.1415 48.9478 17.816 55.2724C12.9831 53.2084 11.349 48.2502 12.9369 43.7532C16.4591 33.7503 24.4042 35.2205 26.6619 21.8276C27.6781 15.7912 25.5244 8.45771 24.2425 5.98438Z" fill="#163E73"/>
<path fill-rule="evenodd" clip-rule="evenodd" d="M3.28711 36.7944C6.30118 38.4318 9.47693 38.9103 12.8086 38.057C12.7104 38.2127 12.491 38.6336 12.3871 38.7835C10.0486 39.9596 7.59458 39.9942 5.00779 39.5618C4.32644 38.599 3.93381 37.838 3.28711 36.7944Z" fill="#163E73"/>
<path fill-rule="evenodd" clip-rule="evenodd" d="M6.03125 41.0089C7.95402 41.326 10.102 40.8359 11.8284 39.8616L11.5397 40.6226C10.46 41.8564 8.69888 42.3118 7.24381 42.381C6.71259 41.9602 6.41234 41.447 6.03125 41.0089Z" fill="#163E73"/>
</g>
<defs>
<clipPath id="clip0_868_1047">
<rect width="79" height="60" fill="white"/>
</clipPath>
</defs>
</svg>
