<svg width="415" height="415" viewBox="0 0 415 415" fill="none" xmlns="http://www.w3.org/2000/svg">
<g clip-path="url(#clip0_668_14225)">
<g opacity="0.3">
<path d="M333.635 235.391L322.329 246.697L333.635 258.002L344.94 246.697L333.635 235.391Z" stroke="white" stroke-width="3" stroke-miterlimit="10" stroke-linecap="round" stroke-linejoin="round"/>
<path d="M89.7868 35.5649L78.4812 46.8705L89.7868 58.1761L101.092 46.8705L89.7868 35.5649Z" stroke="white" stroke-width="3" stroke-miterlimit="10" stroke-linecap="round" stroke-linejoin="round"/>
<path d="M69.2387 271.321L62.248 278.312L69.2387 285.303L76.2293 278.312L69.2387 271.321Z" stroke="white" stroke-width="3" stroke-miterlimit="10" stroke-linecap="round" stroke-linejoin="round"/>
<path d="M29.7289 157.857L22.7383 164.848L29.7289 171.838L36.7195 164.848L29.7289 157.857Z" stroke="white" stroke-width="3" stroke-miterlimit="10" stroke-linecap="round" stroke-linejoin="round"/>
<path d="M315.552 76.9416L308.562 83.9323L315.552 90.9229L322.543 83.9323L315.552 76.9416Z" stroke="white" stroke-width="3" stroke-miterlimit="10" stroke-linecap="round" stroke-linejoin="round"/>
<path d="M84.9121 279.094L74.9707 289.035L84.9121 298.977L94.8536 289.035L84.9121 279.094Z" stroke="white" stroke-width="3" stroke-miterlimit="10" stroke-linecap="round" stroke-linejoin="round"/>
<path d="M283.176 268.497L276.186 275.487L283.176 282.478L290.167 275.487L283.176 268.497Z" stroke="white" stroke-width="3" stroke-miterlimit="10" stroke-linecap="round" stroke-linejoin="round"/>
<path d="M336.807 62.6642L323.429 76.0424L336.807 89.4206L350.185 76.0424L336.807 62.6642Z" stroke="white" stroke-width="3" stroke-miterlimit="10" stroke-linecap="round" stroke-linejoin="round"/>
<path d="M193.426 378.57L186.436 385.561L193.426 392.551L200.417 385.561L193.426 378.57Z" stroke="white" stroke-width="3" stroke-miterlimit="10" stroke-linecap="round" stroke-linejoin="round"/>
<path d="M54.2206 167.673C59.8316 167.673 64.3802 163.125 64.3802 157.514C64.3802 151.903 59.8316 147.354 54.2206 147.354C48.6096 147.354 44.061 151.903 44.061 157.514C44.061 163.125 48.6096 167.673 54.2206 167.673Z" stroke="white" stroke-width="3" stroke-miterlimit="10" stroke-linecap="round" stroke-linejoin="round"/>
<path d="M348.881 198.715C354.181 198.715 358.477 194.419 358.477 189.118C358.477 183.818 354.181 179.522 348.881 179.522C343.581 179.522 339.284 183.818 339.284 189.118C339.284 194.419 343.581 198.715 348.881 198.715Z" stroke="white" stroke-width="3" stroke-miterlimit="10" stroke-linecap="round" stroke-linejoin="round"/>
<path d="M383.309 128.724C386.428 128.724 388.956 126.196 388.956 123.077C388.956 119.958 386.428 117.43 383.309 117.43C380.19 117.43 377.662 119.958 377.662 123.077C377.662 126.196 380.19 128.724 383.309 128.724Z" stroke="white" stroke-width="3" stroke-miterlimit="10" stroke-linecap="round" stroke-linejoin="round"/>
<path d="M270.42 49.1285C270.42 47.2572 268.904 45.7419 267.033 45.7419C265.162 45.7419 263.646 47.2572 263.646 49.1285C263.646 50.9997 265.162 52.515 267.033 52.515C268.896 52.515 270.42 50.9997 270.42 49.1285Z" stroke="white" stroke-width="3" stroke-miterlimit="10" stroke-linecap="round" stroke-linejoin="round"/>
<path d="M128.169 245.572C130.04 245.572 131.556 244.055 131.556 242.185C131.556 240.315 130.04 238.798 128.169 238.798C126.299 238.798 124.783 240.315 124.783 242.185C124.783 244.055 126.299 245.572 128.169 245.572Z" stroke="white" stroke-width="3" stroke-miterlimit="10" stroke-linecap="round" stroke-linejoin="round"/>
<path d="M48.0104 338.15C50.8182 338.15 53.0944 335.874 53.0944 333.066C53.0944 330.258 50.8182 327.982 48.0104 327.982C45.2027 327.982 42.9265 330.258 42.9265 333.066C42.9265 335.874 45.2027 338.15 48.0104 338.15Z" stroke="white" stroke-width="3" stroke-miterlimit="10" stroke-linecap="round" stroke-linejoin="round"/>
<path d="M355.654 324.596C355.654 322.104 353.634 320.083 351.141 320.083C348.649 320.083 346.629 322.104 346.629 324.596C346.629 327.088 348.649 329.108 351.141 329.108C353.634 329.117 355.654 327.088 355.654 324.596Z" stroke="white" stroke-width="3" stroke-miterlimit="10" stroke-linecap="round" stroke-linejoin="round"/>
<path d="M319.528 32.7589C319.528 30.2667 317.508 28.2463 315.016 28.2463C312.524 28.2463 310.503 30.2667 310.503 32.7589C310.503 35.2512 312.524 37.2715 315.016 37.2715C317.508 37.2715 319.528 35.2512 319.528 32.7589Z" stroke="white" stroke-width="3" stroke-miterlimit="10" stroke-linecap="round" stroke-linejoin="round"/>
</g>
<path d="M138.892 206.059L106.716 223.555" stroke="#222222" stroke-width="3" stroke-miterlimit="10" stroke-linecap="round" stroke-linejoin="round"/>
<path d="M77.9263 110.657L112.363 124.203" stroke="#222222" stroke-width="3" stroke-miterlimit="10" stroke-linecap="round" stroke-linejoin="round"/>
<path d="M119.136 33.885L141.152 69.4476" stroke="#222222" stroke-width="3" stroke-miterlimit="10" stroke-linecap="round" stroke-linejoin="round"/>
<path d="M194.211 18.0785L193.084 46.305" stroke="#222222" stroke-width="3" stroke-miterlimit="10" stroke-linecap="round" stroke-linejoin="round"/>
<path d="M258.563 85.2542L287.352 56.4646" stroke="#222222" stroke-width="3" stroke-miterlimit="10" stroke-linecap="round" stroke-linejoin="round"/>
<path d="M298.638 143.396L323.478 134.934" stroke="#222222" stroke-width="3" stroke-miterlimit="10" stroke-linecap="round" stroke-linejoin="round"/>
<path d="M274.932 206.622L295.815 218.471" stroke="#222222" stroke-width="3" stroke-miterlimit="10" stroke-linecap="round" stroke-linejoin="round"/>
<path d="M111.8 84.691L128.732 97.6741" stroke="#222222" stroke-width="3" stroke-miterlimit="10" stroke-linecap="round" stroke-linejoin="round"/>
<path d="M294.125 108.968L276.058 117.43" stroke="#222222" stroke-width="3" stroke-miterlimit="10" stroke-linecap="round" stroke-linejoin="round"/>
<path d="M118.001 170.497L98.8167 176.135" stroke="#222222" stroke-width="3" stroke-miterlimit="10" stroke-linecap="round" stroke-linejoin="round"/>
<path d="M282.832 177.833L291.865 180.093" stroke="#222222" stroke-width="3" stroke-miterlimit="10" stroke-linecap="round" stroke-linejoin="round"/>
<path d="M290.565 144.224C287.377 142.013 275.346 143.976 267.737 150.111C260.128 156.247 258.414 158.458 258.414 158.458C258.414 158.458 254.978 134.404 254.978 133.667C254.978 132.93 250.067 87.7712 249.09 81.1472C248.105 74.5232 246.64 64.7031 245.166 62.4924C243.692 60.2816 237.805 60.0415 235.842 61.0185C233.88 62.0038 233.88 62.0038 233.88 62.0038C233.88 62.0038 234.865 44.8228 232.895 40.6497C230.932 36.4766 224.797 38.9358 223.075 41.1382C221.361 43.349 220.127 46.7852 220.127 46.7852C220.127 46.7852 214.48 44.8228 211.292 51.2067C208.104 57.5906 205.645 63.2293 205.157 69.3648C204.668 75.5002 201.969 83.358 201.969 83.358C201.969 83.358 198.781 78.2078 195.345 81.1472C191.909 84.0949 187.984 95.6289 186.999 103.975C186.013 112.321 185.036 134.404 185.036 134.404C185.036 134.404 183.074 144.464 182.089 152.562C181.103 160.66 181.84 194.285 185.525 208.27C189.209 222.263 194.111 231.098 194.111 231.098C194.111 231.098 202.698 259.324 203.931 263.249C205.157 267.174 218.653 320.679 218.653 320.679L258.902 269.633C258.902 269.633 248.842 241.903 246.631 235.52C244.421 229.136 242.947 227.173 242.947 227.173C242.947 227.173 255.218 209.752 261.842 204.594C268.466 199.444 271.902 182.263 273.624 174.653C275.338 167.044 282.459 156.495 286.384 153.059C290.317 149.623 293.753 146.435 290.565 144.224ZM199.75 132.442C199.013 132.442 199.261 122.87 199.261 111.336C199.261 99.802 201.224 94.6436 201.224 94.6436C200.238 99.7938 202.209 125.321 202.209 127.043C202.209 128.757 200.487 132.442 199.75 132.442Z" fill="white" stroke="#222222" stroke-width="3" stroke-miterlimit="10" stroke-linecap="round" stroke-linejoin="round"/>
<path d="M236.869 231.371C239.941 229.815 240.496 228.159 240.496 228.159" stroke="#222222" stroke-width="3" stroke-miterlimit="10" stroke-linecap="round" stroke-linejoin="round"/>
<path d="M212.758 225.708C212.758 225.708 226.254 234.542 232.886 232.828" stroke="#222222" stroke-width="3" stroke-miterlimit="10" stroke-linecap="round" stroke-linejoin="round"/>
<path d="M258.414 158.458C258.414 158.458 253.264 166.555 252.03 169.503C250.804 172.451 250.067 174.902 247.857 176.127C245.646 177.352 242.707 179.075 242.707 179.075" stroke="#222222" stroke-width="3" stroke-miterlimit="10" stroke-linecap="round" stroke-linejoin="round"/>
<path d="M243.584 160.859C237.341 163.757 228.556 168.882 223.563 176.375" stroke="#222222" stroke-width="3" stroke-miterlimit="10" stroke-linecap="round" stroke-linejoin="round"/>
<path d="M250.804 157.969C250.804 157.969 249.008 158.532 246.275 159.675" stroke="#222222" stroke-width="3" stroke-miterlimit="10" stroke-linecap="round" stroke-linejoin="round"/>
<path d="M220.864 179.563C220.864 179.563 216.442 187.661 214.48 194.045" stroke="#222222" stroke-width="3" stroke-miterlimit="10" stroke-linecap="round" stroke-linejoin="round"/>
<path d="M220.127 46.7852C220.127 46.7852 218.902 57.0938 217.179 72.5525C215.465 88.0113 214.48 95.6206 214.728 105.441C214.977 115.261 217.676 123.847 217.428 125.073" stroke="#222222" stroke-width="3" stroke-miterlimit="10" stroke-linecap="round" stroke-linejoin="round"/>
<path d="M233.872 62.0039C233.872 62.0039 233.135 68.3878 233.872 76.7257C234.609 85.072 233.135 100.531 233.135 106.426C233.135 112.321 233.383 121.148 233.623 123.847C233.872 126.547 235.337 128.509 235.337 128.509" stroke="#222222" stroke-width="3" stroke-miterlimit="10" stroke-linecap="round" stroke-linejoin="round"/>
<path d="M238.533 129.991C238.533 129.991 239.759 132.202 247.857 132.442" stroke="#222222" stroke-width="3" stroke-miterlimit="10" stroke-linecap="round" stroke-linejoin="round"/>
<path d="M219.879 124.096C219.879 124.096 225.766 125.321 229.699 124.584" stroke="#222222" stroke-width="3" stroke-miterlimit="10" stroke-linecap="round" stroke-linejoin="round"/>
<path d="M198.524 134.404C198.524 134.404 198.524 136.855 191.404 139.066" stroke="#222222" stroke-width="3" stroke-miterlimit="10" stroke-linecap="round" stroke-linejoin="round"/>
<path d="M212.518 127.78C213.254 127.292 216.202 126.306 216.939 122.87" stroke="#222222" stroke-width="3" stroke-miterlimit="10" stroke-linecap="round" stroke-linejoin="round"/>
<path d="M212.94 165.371C212.94 165.371 228.2 159.774 237.863 157.737" stroke="#222222" stroke-width="3" stroke-miterlimit="10" stroke-linecap="round" stroke-linejoin="round"/>
<path d="M256.261 413.788H388.194C378.979 401.625 345.345 357.302 343.151 355.116C340.609 352.574 329.415 351.05 329.415 351.05L296.353 323.586L255.151 255.425L215.987 309.849L209.371 283.395L194.625 338.324C194.625 338.324 248.039 403.438 250.067 405.98C250.465 406.468 252.767 409.391 256.261 413.788Z" fill="#222222" stroke="#222222" stroke-width="3" stroke-miterlimit="10" stroke-linecap="round" stroke-linejoin="round"/>
<path d="M152.951 222.967C152.951 222.967 142.03 194.997 139.397 189.847C136.764 184.697 122.473 162.333 121.752 156.263C121.032 150.194 118.796 140.101 116.494 135.878C114.193 131.655 121.048 128.89 126.72 134.239C132.384 139.587 135.812 148.29 135.737 150.799C135.671 153.307 148.455 162.68 148.455 162.68L150.782 141.119C150.782 141.119 153.266 87.6387 152.744 79.6568C152.223 71.6749 151.709 54.7257 158.043 54.0716C164.378 53.4175 165.363 58.4269 165.363 58.4269C165.363 58.4269 165.586 45.7999 172.633 46.6114C178.015 47.2324 180.076 52.308 180.863 54.7506C181.65 57.1932 182.577 60.2237 182.577 60.2237C182.577 60.2237 187.015 57.2098 191.346 64.3885C193.83 68.512 199.112 81.4784 199.965 84.7739C200.818 88.0693 201.083 89.2616 201.083 89.2616C201.083 89.2616 207.02 89.0712 209.653 95.3391C212.286 101.607 216.028 117.96 219.647 131.49C223.265 145.019 223.116 157.87 223.116 157.87C223.116 157.87 224.532 201.398 221.617 215.242C218.703 229.086 213.221 240.885 212.095 242.011C210.969 243.129 194.773 290.929 194.773 290.929L138.602 270.105C138.602 270.105 150.302 241.365 152.148 235.097C154.003 228.838 152.951 222.967 152.951 222.967Z" fill="white" stroke="#222222" stroke-width="3" stroke-miterlimit="10" stroke-linecap="round" stroke-linejoin="round"/>
<path d="M141.194 182.163C141.31 184.904 141.897 186.552 141.897 186.552" stroke="#222222" stroke-width="3" stroke-miterlimit="10" stroke-linecap="round" stroke-linejoin="round"/>
<path d="M146.733 165.057C146.733 165.057 143.562 168.75 141.914 175.341C141.583 176.665 141.384 177.907 141.277 179.05" stroke="#222222" stroke-width="3" stroke-miterlimit="10" stroke-linecap="round" stroke-linejoin="round"/>
<path d="M165.355 58.4435C165.355 58.4435 166.332 75.7901 166.978 84.3599C167.632 92.9297 167.946 106.186 168.004 114.897C168.062 123.599 167.002 134.545 166.406 136.921C165.81 139.298 164.485 142.328 164.485 142.328" stroke="#222222" stroke-width="3" stroke-miterlimit="10" stroke-linecap="round" stroke-linejoin="round"/>
<path d="M182.569 60.2402C182.569 60.2402 179.795 63.4694 180.714 67.626C181.633 71.7826 185.897 94.9997 185.897 98.3614C185.897 101.723 186.137 130.935 186.195 132.914C186.262 134.893 184.871 141.55 184.208 144.191" stroke="#222222" stroke-width="3" stroke-miterlimit="10" stroke-linecap="round" stroke-linejoin="round"/>
<path d="M201.075 89.2699C201.075 89.2699 197.912 89.6011 198.632 94.5443C199.352 99.4874 200.926 115.584 200.917 120.063C200.917 124.551 201.961 134.901 201.754 144.663C201.547 154.425 203.791 157.787 204.842 160.296" stroke="#222222" stroke-width="3" stroke-miterlimit="10" stroke-linecap="round" stroke-linejoin="round"/>
<path d="M152.223 154.384C152.223 154.384 151.097 159.989 152.612 162.887C154.127 165.794 156.23 171.929 156.23 175.291" stroke="#222222" stroke-width="3" stroke-miterlimit="10" stroke-linecap="round" stroke-linejoin="round"/>
<path d="M163.566 151.618C163.566 151.618 162.97 156.23 163.624 159.203C164.278 162.167 166.323 165.206 166.323 165.206" stroke="#222222" stroke-width="3" stroke-miterlimit="10" stroke-linecap="round" stroke-linejoin="round"/>
<path d="M182.486 158.888C182.486 158.888 181.824 163.765 183.008 166.87C184.192 169.967 185.574 172.277 185.574 172.277" stroke="#222222" stroke-width="3" stroke-miterlimit="10" stroke-linecap="round" stroke-linejoin="round"/>
<path d="M157.008 413.788L209.23 295.955C209.23 295.955 186.949 277.557 172.293 267.903C157.638 258.248 140.059 258.538 140.059 258.538C140.059 258.538 117.115 307.431 115.915 310.545C114.706 313.658 98.709 346.786 98.709 346.786C98.709 346.786 91.6793 349.295 88.5577 354.909C86.1151 359.314 68.487 397.476 60.9771 413.788H157.008Z" fill="#AA433A"/>
</g>
<defs>
<clipPath id="clip0_668_14225">
<rect width="414" height="414" fill="white" transform="translate(0.5 0.5)"/>
</clipPath>
</defs>
</svg>
