<svg width="18" height="18" viewBox="0 0 18 18" fill="none" xmlns="http://www.w3.org/2000/svg">
<path d="M1.26 1.26C2.38419e-07 2.532 0 4.566 0 8.64V9.36C0 13.428 2.38419e-07 15.462 1.26 16.74C2.532 18 4.566 18 8.64 18H9.36C13.428 18 15.462 18 16.74 16.74C18 15.468 18 13.434 18 9.36V8.64C18 4.572 18 2.538 16.74 1.26C15.468 2.38419e-07 13.434 0 9.36 0H8.64C4.572 0 2.538 2.38419e-07 1.26 1.26ZM3.036 5.478H5.1C5.166 8.91 6.678 10.362 7.878 10.662V5.478H9.816V8.436C10.998 8.31 12.246 6.96 12.666 5.472H14.598C14.4405 6.24228 14.1259 6.9718 13.6737 7.61497C13.2215 8.25814 12.6415 8.80113 11.97 9.21C12.7194 9.58287 13.3813 10.1104 13.9118 10.7579C14.4424 11.4053 14.8297 12.1579 15.048 12.966H12.918C12.462 11.544 11.322 10.44 9.816 10.29V12.966H9.576C5.472 12.966 3.132 10.158 3.036 5.478Z" fill="white"/>
</svg>
