<svg width="24" height="16" viewBox="0 0 24 16" fill="none" xmlns="http://www.w3.org/2000/svg">
<g clip-path="url(#clip0_241_32251)">
<path d="M23.4118 1.74882C23.5781 1.19089 23.4118 0.781738 22.6255 0.781738H20.0207C19.3579 0.781738 19.055 1.1357 18.8887 1.52445C18.8887 1.52445 17.5644 4.78688 15.6877 6.90224C15.0819 7.51778 14.8051 7.71213 14.4749 7.71213C14.3099 7.71213 14.0699 7.51778 14.0699 6.95984V1.74882C14.0699 1.0793 13.8787 0.781738 13.3264 0.781738H9.23328C8.81991 0.781738 8.57048 1.0913 8.57048 1.38647C8.57048 2.02 9.50883 2.16638 9.60505 3.95177V7.82493C9.60505 8.67321 9.4542 8.82801 9.12162 8.82801C8.23911 8.82801 6.09157 5.55358 4.81709 1.80522C4.56885 1.0769 4.31823 0.782939 3.65307 0.782939H1.04946C0.304723 0.782939 0.15625 1.1369 0.15625 1.52565C0.15625 2.22397 1.03877 5.67957 4.26716 10.2498C6.4194 13.3707 9.44945 15.0625 12.2099 15.0625C13.8644 15.0625 14.0687 14.6869 14.0687 14.039V11.6801C14.0687 10.929 14.2267 10.7778 14.7505 10.7778C15.1353 10.7778 15.7981 10.9746 17.3434 12.478C19.1085 14.261 19.4007 15.0613 20.3924 15.0613H22.9961C23.7396 15.0613 24.1114 14.6857 23.8976 13.9442C23.6636 13.2063 22.8203 12.1324 21.7014 10.8618C21.0932 10.137 20.1846 9.35716 19.9079 8.96721C19.5218 8.46447 19.6335 8.24247 19.9079 7.79613C19.909 7.79733 23.0816 3.28345 23.4118 1.74882Z" fill="white"/>
</g>
<defs>
<clipPath id="clip0_241_32251">
<rect width="24" height="14.8571" fill="white" transform="translate(0 0.571533)"/>
</clipPath>
</defs>
</svg>
