<svg width="219" height="60" viewBox="0 0 219 60" fill="none" xmlns="http://www.w3.org/2000/svg">
<path fill-rule="evenodd" clip-rule="evenodd" d="M0.5 16.9583L14.9252 46.8013L17.5537 40.845L8.1799 21.4541H15.8908L21.2332 32.5065L23.8613 26.5501L19.2253 16.9583H0.5Z" fill="white"/>
<path fill-rule="evenodd" clip-rule="evenodd" d="M34.1094 3.26562L14.7949 46.9019L17.6407 52.7701L39.551 3.26562H34.1094Z" fill="white"/>
<path fill-rule="evenodd" clip-rule="evenodd" d="M32.5781 36.6197H38.0067L52.8014 3.26562H39.7719L37.7847 7.74664H45.3848L32.5781 36.6197Z" fill="white"/>
<path fill-rule="evenodd" clip-rule="evenodd" d="M60.3783 7.99863V11.3291H61.9237C62.2431 11.3291 62.5269 11.2873 62.7737 11.2041C62.9795 11.1318 63.1604 11.0177 63.3149 10.8622C63.4481 10.727 63.5405 10.556 63.5928 10.3478C63.6437 10.1206 63.6698 9.90262 63.6698 9.69547C63.6698 9.09334 63.5203 8.65799 63.2218 8.38764C62.9327 8.12854 62.4592 7.99863 61.8002 7.99863H60.3783ZM64.4268 4.26438H60.3783V6.81649H61.9854C62.5108 6.81649 62.9589 6.88425 63.3302 7.01837C63.7005 7.15354 64.015 7.35086 64.2724 7.61032C64.53 7.86943 64.7155 8.16013 64.8288 8.48103C64.9526 8.82405 65.0147 9.19692 65.0147 9.60103C65.0147 10.5047 64.7675 11.2196 64.2724 11.749C63.7779 12.2781 63.0363 12.5425 62.0474 12.5425H59.6981V12.5267H59.0488V3.05029H64.4268V4.26438Z" fill="white"/>
<path fill-rule="evenodd" clip-rule="evenodd" d="M71.7717 12.5267V4.29563H69.2379V5.02696C69.2379 5.6182 69.232 6.05953 69.2222 6.34918C69.2009 6.85792 69.1856 7.26765 69.1758 7.57837C69.1654 7.85854 69.1392 8.20121 69.0984 8.60567L69.0214 9.3837C68.9492 10.0058 68.8411 10.5297 68.6967 10.9549C68.5625 11.36 68.3875 11.6865 68.1709 11.9351C67.9652 12.1851 67.7435 12.3512 67.5071 12.4333C67.2281 12.5376 66.9656 12.5888 66.719 12.5888C66.5018 12.5888 66.2706 12.5471 66.0234 12.4646V11.2821C66.2086 11.3344 66.399 11.36 66.5942 11.36C66.719 11.36 66.8522 11.3232 66.9969 11.2512C67.0998 11.1989 67.2079 11.09 67.3212 10.9243C67.4143 10.7891 67.5015 10.5823 67.5841 10.3015C67.6664 10.0431 67.7281 9.71584 67.7693 9.32156L67.8313 8.57443C67.8728 8.17032 67.8979 7.8273 67.9084 7.54747C67.9188 7.17391 67.9342 6.76944 67.9551 6.33374C67.9753 5.75302 67.9858 5.30678 67.9858 4.99606V3.05029H73.1012V12.5267H71.7717Z" fill="white"/>
<path fill-rule="evenodd" clip-rule="evenodd" d="M76.8775 9.08808H79.3964L78.1914 4.79313L76.8775 9.08808ZM77.5418 3.05029H78.9483L81.8378 12.5267H80.3695L79.7363 10.286H76.5062L75.827 12.5267H74.4668L77.5418 3.05029Z" fill="white"/>
<path fill-rule="evenodd" clip-rule="evenodd" d="M88.3693 4.26438H84.5834V12.5267H83.2539V3.05029H88.3693V4.26438Z" fill="white"/>
<path fill-rule="evenodd" clip-rule="evenodd" d="M90.7452 9.25932C90.7452 9.97521 90.8941 10.525 91.1925 10.9084C91.4917 11.2823 91.9809 11.4695 92.6611 11.4695C93.3407 11.4695 93.8348 11.2823 94.1444 10.9084C94.4429 10.5454 94.5925 9.99557 94.5925 9.25932V6.34945C94.5925 4.8457 93.9488 4.09366 92.6611 4.09366C92.0429 4.09366 91.5687 4.28009 91.2392 4.6533C90.9094 5.0374 90.7452 5.60231 90.7452 6.34945V9.25932ZM89.416 6.50533C89.416 5.37481 89.689 4.48759 90.2351 3.84403C90.7703 3.21136 91.5893 2.89502 92.6918 2.89502C93.7842 2.89502 94.598 3.21136 95.1336 3.84403C95.6688 4.47741 95.9373 5.36392 95.9373 6.50533V9.11924C95.9373 10.2498 95.6591 11.1261 95.1026 11.7489C94.5457 12.3714 93.727 12.6822 92.6458 12.6822C91.5534 12.6822 90.7452 12.3714 90.219 11.7489C89.6831 11.1163 89.416 10.2392 89.416 9.11924V6.50533Z" fill="white"/>
<path fill-rule="evenodd" clip-rule="evenodd" d="M103.155 4.28018H100.821V12.5267H99.4919V4.28018H97.0352V3.05029H103.155V4.28018Z" fill="white"/>
<path fill-rule="evenodd" clip-rule="evenodd" d="M105.927 8.27915V11.314H107.442C108.081 11.314 108.544 11.1943 108.832 10.9552C109.111 10.7168 109.25 10.3278 109.25 9.78886C109.25 9.29031 109.121 8.91183 108.863 8.65237C108.616 8.40379 108.153 8.27915 107.473 8.27915H105.927ZM105.927 4.26438V7.14301H107.411C107.74 7.14301 108.008 7.1072 108.215 7.03382C108.431 6.95166 108.59 6.84739 108.693 6.7231C108.807 6.57775 108.884 6.42713 108.926 6.27159C108.976 6.08516 109.003 5.89381 109.003 5.6965C109.003 5.14668 108.853 4.76785 108.554 4.56C108.266 4.36269 107.838 4.26438 107.272 4.26438H105.927ZM104.613 12.5271V3.05029H107.396C108.436 3.05029 109.193 3.27394 109.667 3.72018C110.131 4.15589 110.362 4.7524 110.362 5.50901C110.362 6.05988 110.254 6.48997 110.038 6.80104C109.811 7.12265 109.497 7.38176 109.095 7.57872C109.58 7.71389 109.955 7.973 110.223 8.3571C110.491 8.74084 110.625 9.2387 110.625 9.85136C110.625 10.214 110.573 10.5511 110.47 10.8622C110.367 11.1834 110.197 11.4696 109.961 11.7178C109.724 11.9664 109.409 12.1637 109.018 12.3094C108.616 12.4551 108.127 12.5271 107.55 12.5271H104.613Z" fill="white"/>
<path fill-rule="evenodd" clip-rule="evenodd" d="M113.425 9.25932C113.425 9.97521 113.574 10.525 113.873 10.9084C114.172 11.2823 114.661 11.4695 115.341 11.4695C116.021 11.4695 116.516 11.2823 116.824 10.9084C117.124 10.5454 117.273 9.99557 117.273 9.25932V6.34945C117.273 4.8457 116.629 4.09366 115.341 4.09366C114.723 4.09366 114.249 4.28009 113.92 4.6533C113.59 5.0374 113.425 5.60231 113.425 6.34945V9.25932ZM112.096 6.50533C112.096 5.37481 112.369 4.48759 112.915 3.84403C113.45 3.21136 114.269 2.89502 115.372 2.89502C116.464 2.89502 117.278 3.21136 117.813 3.84403C118.35 4.47741 118.618 5.36392 118.618 6.50533V9.11924C118.618 10.2498 118.339 11.1261 117.783 11.7489C117.227 12.3714 116.408 12.6822 115.326 12.6822C114.234 12.6822 113.425 12.3714 112.899 11.7489C112.364 11.1163 112.096 10.2392 112.096 9.11924V6.50533Z" fill="white"/>
<path fill-rule="evenodd" clip-rule="evenodd" d="M121.702 4.26438V7.92069H123.031C123.381 7.92069 123.685 7.86943 123.942 7.76585C124.169 7.67176 124.344 7.54291 124.468 7.37649C124.581 7.2206 124.664 7.03382 124.715 6.81649C124.756 6.63954 124.776 6.42678 124.776 6.1782C124.776 5.55571 124.643 5.07822 124.376 4.74643C124.117 4.42588 123.628 4.26438 122.907 4.26438H121.702ZM126.137 6.03811C126.137 6.46399 126.08 6.87372 125.967 7.268C125.864 7.60997 125.689 7.93157 125.441 8.23281C125.215 8.50245 124.9 8.72013 124.499 8.8862C124.107 9.04173 123.649 9.11897 123.123 9.11897H121.702V12.5267H120.373V3.05029H123.061C123.628 3.05029 124.107 3.12824 124.499 3.28482C124.891 3.43966 125.21 3.65277 125.457 3.92171C125.694 4.17099 125.869 4.48768 125.983 4.87142C126.084 5.21339 126.137 5.6024 126.137 6.03811Z" fill="white"/>
<path fill-rule="evenodd" clip-rule="evenodd" d="M128.964 3.05029V6.50542L128.948 10.1305L132.734 3.05029H134.048V12.5267H132.734V5.47777L128.964 12.5267H127.65V3.05029H128.964Z" fill="white"/>
<path fill-rule="evenodd" clip-rule="evenodd" d="M141.618 4.28018H139.285V12.5267H137.955V4.28018H135.498V3.05029H141.618V4.28018Z" fill="white"/>
<path fill-rule="evenodd" clip-rule="evenodd" d="M148.283 12.5267H143.076V3.05029H148.221V4.26438H144.405V7.12721H147.836V8.3104H144.405V11.3137H148.283V12.5267Z" fill="white"/>
<path fill-rule="evenodd" clip-rule="evenodd" d="M155.247 12.5267V4.29563H152.712V5.02696C152.712 5.6182 152.708 6.05953 152.697 6.34918C152.677 6.85792 152.661 7.26765 152.651 7.57837C152.64 7.85854 152.615 8.20121 152.573 8.60567L152.496 9.3837C152.424 10.0058 152.316 10.5297 152.172 10.9549C152.038 11.36 151.862 11.6865 151.646 11.9351C151.44 12.1851 151.219 12.3512 150.982 12.4333C150.704 12.5376 150.441 12.5888 150.194 12.5888C149.978 12.5888 149.746 12.5471 149.498 12.4646V11.2821C149.684 11.3344 149.874 11.36 150.07 11.36C150.194 11.36 150.328 11.3232 150.472 11.2512C150.575 11.1989 150.682 11.09 150.797 10.9243C150.889 10.7891 150.976 10.5823 151.059 10.3015C151.142 10.0431 151.203 9.71584 151.244 9.32156L151.306 8.57443C151.347 8.17032 151.374 7.8273 151.384 7.54747C151.393 7.17391 151.409 6.76944 151.43 6.33374C151.451 5.75302 151.461 5.30678 151.461 4.99606V3.05029H156.576V12.5267H155.247Z" fill="white"/>
<path fill-rule="evenodd" clip-rule="evenodd" d="M159.869 7.53237V11.314H161.414C161.764 11.314 162.047 11.2614 162.264 11.1571C162.49 11.0546 162.671 10.9194 162.805 10.7537C162.938 10.5873 163.031 10.3903 163.083 10.1617C163.134 9.92404 163.159 9.68986 163.159 9.46129C163.159 8.83915 163.01 8.36201 162.712 8.03058C162.413 7.69844 161.939 7.53237 161.29 7.53237H159.869ZM159.869 6.33409H161.475C161.96 6.33409 162.407 6.41695 162.82 6.58301C163.201 6.73855 163.516 6.95658 163.763 7.23605C164.02 7.52711 164.205 7.84871 164.319 8.20121C164.443 8.57478 164.505 8.96941 164.505 9.3837C164.505 9.81976 164.443 10.2344 164.319 10.6287C164.195 11.0128 164.009 11.3446 163.763 11.6244C163.516 11.9046 163.206 12.1229 162.836 12.2785C162.444 12.4445 162.011 12.5271 161.537 12.5271H158.539V3.05029H159.869V6.33409Z" fill="white"/>
<path fill-rule="evenodd" clip-rule="evenodd" d="M172.369 12.5267H171.039V8.2788H167.362V12.5267H166.033V3.05029H167.362V7.03347H171.039V3.05029H172.369V12.5267Z" fill="white"/>
<mask id="mask0_868_1090" style="mask-type:luminance" maskUnits="userSpaceOnUse" x="0" y="0" width="219" height="60">
<path d="M0.5 60H218.5V0H0.5V60Z" fill="white"/>
</mask>
<g mask="url(#mask0_868_1090)">
<path fill-rule="evenodd" clip-rule="evenodd" d="M181.265 12.5267H182.594V3.05029H181.265V12.5267ZM175.671 7.53237V11.3137H177.016C177.366 11.3137 177.649 11.2614 177.866 11.1567C178.093 11.0542 178.272 10.9194 178.406 10.7533C178.54 10.5869 178.632 10.3896 178.685 10.1614C178.736 9.92368 178.762 9.6895 178.762 9.46094C178.762 8.83845 178.612 8.36166 178.313 8.03058C178.014 7.69774 177.541 7.53237 176.891 7.53237H175.671ZM180.106 9.3837C180.106 9.81906 180.044 10.2341 179.92 10.6283C179.797 11.0128 179.612 11.3446 179.364 11.624C179.117 11.9042 178.808 12.1226 178.437 12.2781C178.045 12.4442 177.613 12.5267 177.139 12.5267H174.342V3.05029H175.671V6.33409H177.078C177.561 6.33409 178.01 6.41659 178.422 6.58301C178.802 6.7382 179.117 6.95623 179.364 7.2357C179.621 7.52676 179.807 7.84836 179.92 8.20086C180.044 8.57407 180.106 8.96871 180.106 9.3837Z" fill="white"/>
</g>
<mask id="mask1_868_1090" style="mask-type:luminance" maskUnits="userSpaceOnUse" x="0" y="0" width="219" height="60">
<path d="M0.5 60H218.5V0H0.5V60Z" fill="white"/>
</mask>
<g mask="url(#mask1_868_1090)">
<path fill-rule="evenodd" clip-rule="evenodd" d="M189.718 0.000244141C189.718 0.612905 189.548 1.09496 189.208 1.44746C188.868 1.81084 188.384 1.99271 187.755 1.99271C187.076 1.99271 186.576 1.81084 186.256 1.44746C185.927 1.06406 185.762 0.582009 185.762 0.000244141H186.782C186.782 0.394875 186.88 0.6754 187.076 0.841117C187.271 1.00789 187.498 1.09004 187.755 1.09004C187.972 1.09004 188.178 1.00789 188.374 0.841117C188.569 0.6754 188.667 0.394875 188.667 0.000244141H189.718ZM185.871 3.05056V6.50534L185.855 10.1307L189.64 3.05056H190.955V12.527H189.64V5.47803L185.871 12.527H184.557V3.05056H185.871Z" fill="white"/>
</g>
<mask id="mask2_868_1090" style="mask-type:luminance" maskUnits="userSpaceOnUse" x="0" y="0" width="219" height="60">
<path d="M0.5 60H218.5V0H0.5V60Z" fill="white"/>
</mask>
<g mask="url(#mask2_868_1090)">
<path fill-rule="evenodd" clip-rule="evenodd" d="M64.0603 16.795V22.6608H64.2455C64.6056 22.6608 64.9411 22.619 65.2497 22.5369C65.569 22.4529 65.8159 22.329 65.9913 22.1629C66.2179 21.9558 66.3724 21.7062 66.455 21.4155C66.5478 21.1047 66.5942 20.7259 66.5942 20.2804V19.1909C66.5942 18.7348 66.5422 18.356 66.4397 18.0548C66.326 17.7335 66.1768 17.4846 65.9913 17.308C65.7852 17.1103 65.538 16.9766 65.2497 16.9039C64.9718 16.8312 64.637 16.795 64.2455 16.795H64.0603ZM60.2123 20.2804C60.2123 20.695 60.2632 21.0742 60.3661 21.4155C60.4588 21.7371 60.6028 21.9867 60.7984 22.1629C60.9742 22.329 61.2214 22.4529 61.5404 22.5369C61.8501 22.619 62.1897 22.6608 62.561 22.6608H62.7615V16.795H62.561C62.1694 16.795 61.8347 16.8312 61.5568 16.9039C61.2887 16.9766 61.0464 17.1103 60.8302 17.308C60.6245 17.4944 60.4696 17.7437 60.3661 18.0548C60.2632 18.356 60.2123 18.7348 60.2123 19.1909V20.2804ZM58.8828 19.285C58.8828 18.0295 59.1973 17.1058 59.8253 16.5142C60.4533 15.9226 61.3657 15.6277 62.561 15.6277H62.7615V14.6628H64.0603V15.6277H64.2455C65.4296 15.6277 66.3417 15.9226 66.9805 16.5142C67.6081 17.1058 67.9226 18.0295 67.9226 19.285V20.187C67.9226 21.4527 67.6081 22.3708 66.9805 22.9406C66.3417 23.5224 65.4296 23.812 64.2455 23.812H64.0603V24.8709H62.7615V23.812H62.561C61.3762 23.812 60.4637 23.5224 59.8253 22.9406C59.1973 22.3708 58.8828 21.4527 58.8828 20.187V19.285Z" fill="white"/>
</g>
<mask id="mask3_868_1090" style="mask-type:luminance" maskUnits="userSpaceOnUse" x="0" y="0" width="219" height="60">
<path d="M0.5 60H218.5V0H0.5V60Z" fill="white"/>
</mask>
<g mask="url(#mask3_868_1090)">
<path fill-rule="evenodd" clip-rule="evenodd" d="M70.6956 21.2292C70.6956 21.9451 70.8452 22.4949 71.1444 22.879C71.4429 23.2529 71.9324 23.4393 72.6127 23.4393C73.2926 23.4393 73.7867 23.2529 74.0959 22.879C74.3941 22.5167 74.5436 21.9668 74.5436 21.2292V18.3193C74.5436 16.8159 73.9003 16.0639 72.6127 16.0639C71.9945 16.0639 71.5206 16.2503 71.1908 16.6232C70.8609 17.0076 70.6956 17.5729 70.6956 18.3193V21.2292ZM69.3672 18.4759C69.3672 17.345 69.6405 16.4582 70.1866 15.8142C70.7218 15.1819 71.5408 14.8652 72.6434 14.8652C73.7358 14.8652 74.5485 15.1819 75.0848 15.8142C75.6207 16.4473 75.8885 17.3341 75.8885 18.4759V21.0898C75.8885 22.2203 75.6106 23.0963 75.0541 23.7192C74.4976 24.3416 73.6786 24.6524 72.597 24.6524C71.5053 24.6524 70.6956 24.3416 70.1709 23.7192C69.6346 23.0865 69.3672 22.2094 69.3672 21.0898V18.4759Z" fill="white"/>
</g>
<mask id="mask4_868_1090" style="mask-type:luminance" maskUnits="userSpaceOnUse" x="0" y="0" width="219" height="60">
<path d="M0.5 60H218.5V0H0.5V60Z" fill="white"/>
</mask>
<g mask="url(#mask4_868_1090)">
<path fill-rule="evenodd" clip-rule="evenodd" d="M83.9787 24.4973H82.6503V20.249H78.9724V24.4973H77.6426V15.0205H78.9724V19.004H82.6503V15.0205H83.9787V24.4973Z" fill="white"/>
</g>
<mask id="mask5_868_1090" style="mask-type:luminance" maskUnits="userSpaceOnUse" x="0" y="0" width="219" height="60">
<path d="M0.5 60H218.5V0H0.5V60Z" fill="white"/>
</mask>
<g mask="url(#mask5_868_1090)">
<path fill-rule="evenodd" clip-rule="evenodd" d="M88.481 21.3848C88.4085 21.8009 88.2906 22.1685 88.1257 22.4901C87.9611 22.8222 87.8164 23.0711 87.693 23.2368H91.155V16.2658H88.7596V17.1682C88.7596 17.8328 88.754 18.304 88.7443 18.5845C88.7341 18.74 88.7209 18.9419 88.7052 19.1912C88.6899 19.4401 88.6822 19.6111 88.6822 19.7041C88.6721 19.8393 88.6414 20.1454 88.5894 20.6226C88.5487 20.9761 88.512 21.2293 88.481 21.3848ZM93.7199 26.1657H92.5145V24.4973H86.5961V26.1657H85.375V23.2368H86.2401C86.436 23.0399 86.6222 22.7653 86.7966 22.4125C86.982 22.0494 87.1159 21.6857 87.1989 21.3223C87.2603 21.0323 87.307 20.8041 87.3377 20.638C87.3781 20.4414 87.4148 20.156 87.4461 19.7821C87.4556 19.7101 87.4716 19.3313 87.4922 18.6463C87.503 18.3563 87.5075 17.8423 87.5075 17.1057V15.0205H92.4835V23.2368H93.7199V26.1657Z" fill="white"/>
</g>
<mask id="mask6_868_1090" style="mask-type:luminance" maskUnits="userSpaceOnUse" x="0" y="0" width="219" height="60">
<path d="M0.5 60H218.5V0H0.5V60Z" fill="white"/>
</mask>
<g mask="url(#mask6_868_1090)">
<path fill-rule="evenodd" clip-rule="evenodd" d="M101.723 20.4514V22.9097H102.913C103.397 22.9097 103.736 22.8114 103.932 22.6145C104.139 22.4066 104.242 22.0906 104.242 21.6654C104.242 21.229 104.143 20.9183 103.948 20.7312C103.742 20.5447 103.402 20.4514 102.928 20.4514H101.723ZM101.723 16.5921V19.0041H102.851C103.315 19.0041 103.629 18.8904 103.793 18.6618C103.959 18.4336 104.04 18.138 104.04 17.7753C104.04 17.3389 103.938 17.0331 103.732 16.8575C103.525 16.6806 103.207 16.5921 102.774 16.5921H101.723ZM99.8379 24.497V15.0203H102.928C104.011 15.0203 104.793 15.2334 105.277 15.6586C105.782 16.1044 106.034 16.7115 106.034 17.479C106.034 18.0081 105.926 18.4287 105.71 18.7398C105.483 19.0614 105.159 19.3159 104.736 19.502C105.705 19.8236 106.189 20.5907 106.189 21.8052C106.189 22.1686 106.142 22.5102 106.05 22.8318C105.968 23.133 105.792 23.4185 105.524 23.6881C105.266 23.9472 104.947 24.1442 104.566 24.279C104.154 24.4247 103.665 24.497 103.098 24.497H99.8379Z" fill="white"/>
</g>
<mask id="mask7_868_1090" style="mask-type:luminance" maskUnits="userSpaceOnUse" x="0" y="0" width="219" height="60">
<path d="M0.5 60H218.5V0H0.5V60Z" fill="white"/>
</mask>
<g mask="url(#mask7_868_1090)">
<path fill-rule="evenodd" clip-rule="evenodd" d="M112.875 24.4973V16.67H110.85V17.2461C110.85 18.1698 110.83 18.9472 110.789 19.5798C110.737 20.3378 110.686 20.9126 110.634 21.3069C110.562 21.9402 110.443 22.4746 110.279 22.91C110.114 23.3664 109.939 23.6985 109.754 23.9053C109.547 24.1441 109.305 24.321 109.028 24.4348C108.78 24.5383 108.481 24.5903 108.131 24.5903C108.017 24.5903 107.869 24.5801 107.682 24.5591C107.528 24.5383 107.384 24.5075 107.25 24.4657V22.832C107.435 22.8843 107.621 22.91 107.807 22.91C108.032 22.91 108.239 22.7913 108.424 22.5522C108.599 22.324 108.743 21.8721 108.857 21.1984C108.898 20.96 108.924 20.7311 108.934 20.513C108.934 20.4414 108.943 20.2985 108.957 20.0858C108.974 19.8726 108.986 19.7041 108.996 19.5798C109.006 19.2382 109.022 18.8639 109.043 18.4598C109.053 18.1898 109.058 17.7801 109.058 17.2303V15.0205H114.791V24.4973H112.875Z" fill="white"/>
</g>
<mask id="mask8_868_1090" style="mask-type:luminance" maskUnits="userSpaceOnUse" x="0" y="0" width="219" height="60">
<path d="M0.5 60H218.5V0H0.5V60Z" fill="white"/>
</mask>
<g mask="url(#mask8_868_1090)">
<path fill-rule="evenodd" clip-rule="evenodd" d="M118.86 21.0741H120.823L119.881 17.2461L118.86 21.0741ZM118.953 15.0205H121.04L123.759 24.4973H121.657L121.193 22.6147H118.443L117.933 24.4973H116.002L118.953 15.0205Z" fill="white"/>
</g>
<mask id="mask9_868_1090" style="mask-type:luminance" maskUnits="userSpaceOnUse" x="0" y="0" width="219" height="60">
<path d="M0.5 60H218.5V0H0.5V60Z" fill="white"/>
</mask>
<g mask="url(#mask9_868_1090)">
<path fill-rule="evenodd" clip-rule="evenodd" d="M128.123 21.0583C128.052 21.4526 127.949 21.81 127.815 22.1316C127.732 22.3391 127.614 22.5831 127.46 22.8629H130.38V16.6384H128.387V17.2766C128.387 18.0656 128.361 18.8078 128.309 19.5019C128.269 20.1145 128.206 20.6328 128.123 21.0583ZM133.455 26.831H131.802V24.4973H126.3V26.831H124.646V22.8629H125.497C125.692 22.6147 125.858 22.3391 125.992 22.0382C126.125 21.7373 126.243 21.3592 126.346 20.9031C126.378 20.7679 126.414 20.5657 126.455 20.2957C126.507 19.912 126.537 19.6529 126.547 19.5177C126.547 19.4447 126.555 19.2976 126.571 19.0746C126.587 18.8513 126.599 18.667 126.609 18.522C126.62 18.2727 126.625 17.8479 126.625 17.2461V15.0205H132.297V22.8629H133.455V26.831Z" fill="white"/>
</g>
<mask id="mask10_868_1090" style="mask-type:luminance" maskUnits="userSpaceOnUse" x="0" y="0" width="219" height="60">
<path d="M0.5 60H218.5V0H0.5V60Z" fill="white"/>
</mask>
<g mask="url(#mask10_868_1090)">
<path fill-rule="evenodd" clip-rule="evenodd" d="M136.626 15.0205V18.2569L136.564 21.3385L139.825 15.0205H141.648V24.4973H139.841V21.0583L139.887 18.2415L136.626 24.4973H134.803V15.0205H136.626Z" fill="white"/>
</g>
<mask id="mask11_868_1090" style="mask-type:luminance" maskUnits="userSpaceOnUse" x="0" y="0" width="219" height="60">
<path d="M0.5 60H218.5V0H0.5V60Z" fill="white"/>
</mask>
<g mask="url(#mask11_868_1090)">
<path fill-rule="evenodd" clip-rule="evenodd" d="M145.238 18.2728L145.332 21.3224V24.4974H143.508V15.0203H145.27V15.0361L145.332 15.0203L147.526 19.502L149.72 15.0203L149.782 15.0361V15.0203H151.528V24.4974H149.72V21.4471L149.797 18.1173L148.175 21.65H146.8L145.238 18.2728Z" fill="white"/>
</g>
<mask id="mask12_868_1090" style="mask-type:luminance" maskUnits="userSpaceOnUse" x="0" y="0" width="219" height="60">
<path d="M0.5 60H218.5V0H0.5V60Z" fill="white"/>
</mask>
<g mask="url(#mask12_868_1090)">
<path fill-rule="evenodd" clip-rule="evenodd" d="M155.2 15.0205V18.2569L155.138 21.3385L158.399 15.0205H160.222V24.4973H158.415V21.0583L158.461 18.2415L155.2 24.4973H153.377V15.0205H155.2Z" fill="white"/>
</g>
<mask id="mask13_868_1090" style="mask-type:luminance" maskUnits="userSpaceOnUse" x="0" y="0" width="219" height="60">
<path d="M0.5 60H218.5V0H0.5V60Z" fill="white"/>
</mask>
<g mask="url(#mask13_868_1090)">
<path fill-rule="evenodd" clip-rule="evenodd" d="M163.999 16.6384V19.8442H164.849C165.188 19.8442 165.451 19.808 165.637 19.7354C165.822 19.663 165.977 19.5489 166.1 19.3938C166.224 19.2379 166.306 19.0721 166.348 18.8952C166.389 18.7298 166.409 18.5171 166.409 18.2566C166.409 17.7489 166.296 17.3493 166.069 17.0593C165.853 16.7795 165.43 16.6384 164.802 16.6384H163.999ZM168.341 18.1951C168.341 18.6308 168.275 19.0613 168.14 19.4864C168.016 19.8811 167.826 20.223 167.568 20.513C167.321 20.7939 166.991 21.0221 166.579 21.198C166.187 21.3641 165.719 21.447 165.173 21.447H163.999V24.4973H162.082V15.0205H165.111C165.678 15.0205 166.162 15.0981 166.564 15.2547C166.955 15.4095 167.295 15.6377 167.584 15.9386C167.841 16.2083 168.032 16.5404 168.156 16.9347C168.279 17.329 168.341 17.7489 168.341 18.1951Z" fill="white"/>
</g>
<mask id="mask14_868_1090" style="mask-type:luminance" maskUnits="userSpaceOnUse" x="0" y="0" width="219" height="60">
<path d="M0.5 60H218.5V0H0.5V60Z" fill="white"/>
</mask>
<g mask="url(#mask14_868_1090)">
<path fill-rule="evenodd" clip-rule="evenodd" d="M171.235 21.0741H173.198L172.256 17.2461L171.235 21.0741ZM171.329 15.0205H173.414L176.135 24.4973H174.032L173.569 22.6147H170.819L170.308 24.4973H168.377L171.329 15.0205Z" fill="white"/>
</g>
<mask id="mask15_868_1090" style="mask-type:luminance" maskUnits="userSpaceOnUse" x="0" y="0" width="219" height="60">
<path d="M0.5 60H218.5V0H0.5V60Z" fill="white"/>
</mask>
<g mask="url(#mask15_868_1090)">
<path fill-rule="evenodd" clip-rule="evenodd" d="M65.8641 36.467H63.932V28.6401H60.9655V36.467H59.0488V26.991H65.8641V36.467Z" fill="white"/>
</g>
<mask id="mask16_868_1090" style="mask-type:luminance" maskUnits="userSpaceOnUse" x="0" y="0" width="219" height="60">
<path d="M0.5 60H218.5V0H0.5V60Z" fill="white"/>
</mask>
<g mask="url(#mask16_868_1090)">
<path fill-rule="evenodd" clip-rule="evenodd" d="M69.4195 33.0441C69.4195 33.6771 69.5231 34.1634 69.7285 34.5067C69.9453 34.8592 70.3421 35.0351 70.9185 35.0351C71.4956 35.0351 71.892 34.8592 72.1085 34.5067C72.3142 34.1634 72.4178 33.6771 72.4178 33.0441V30.4611C72.4178 29.7965 72.3101 29.2884 72.0928 28.9359C71.8767 28.5834 71.4903 28.4065 70.9342 28.4065C70.3672 28.4065 69.976 28.5834 69.7591 28.9359C69.5325 29.3088 69.4195 29.8182 69.4195 30.4611V33.0441ZM67.5039 30.6166C67.5039 29.3815 67.7916 28.4433 68.369 27.7998C68.9464 27.1566 69.8066 26.835 70.9495 26.835C72.0723 26.835 72.9223 27.1622 73.4991 27.8152C74.0657 28.4588 74.3495 29.3927 74.3495 30.6166V32.8885C74.3495 34.1434 74.0657 35.0769 73.4991 35.6885C72.9223 36.3114 72.0618 36.6224 70.9185 36.6224C69.7755 36.6224 68.9199 36.3114 68.3536 35.6885C67.7867 35.0769 67.5039 34.1434 67.5039 32.8885V30.6166Z" fill="white"/>
</g>
<mask id="mask17_868_1090" style="mask-type:luminance" maskUnits="userSpaceOnUse" x="0" y="0" width="219" height="60">
<path d="M0.5 60H218.5V0H0.5V60Z" fill="white"/>
</mask>
<g mask="url(#mask17_868_1090)">
<path fill-rule="evenodd" clip-rule="evenodd" d="M81.6957 28.6091H79.5321V36.4673H77.6162V28.6091H75.4062V26.9912H81.6957V28.6091Z" fill="white"/>
</g>
<mask id="mask18_868_1090" style="mask-type:luminance" maskUnits="userSpaceOnUse" x="0" y="0" width="219" height="60">
<path d="M0.5 60H218.5V0H0.5V60Z" fill="white"/>
</mask>
<g mask="url(#mask18_868_1090)">
<path fill-rule="evenodd" clip-rule="evenodd" d="M84.281 33.0442H86.243L85.3009 29.2159L84.281 33.0442ZM84.3738 26.991H86.4596L89.1796 36.467H87.0778L86.6144 34.5848H83.8637L83.3542 36.467H81.4219L84.3738 26.991Z" fill="white"/>
</g>
<mask id="mask19_868_1090" style="mask-type:luminance" maskUnits="userSpaceOnUse" x="0" y="0" width="219" height="60">
<path d="M0.5 60H218.5V0H0.5V60Z" fill="white"/>
</mask>
<g mask="url(#mask19_868_1090)">
<path fill-rule="evenodd" clip-rule="evenodd" d="M97.3301 36.467H95.3981V32.4523H92.3538V36.467H90.4375V26.991H92.3538V30.8032H95.3981V26.991H97.3301V36.467Z" fill="white"/>
</g>
<mask id="mask20_868_1090" style="mask-type:luminance" maskUnits="userSpaceOnUse" x="0" y="0" width="219" height="60">
<path d="M0.5 60H218.5V0H0.5V60Z" fill="white"/>
</mask>
<g mask="url(#mask20_868_1090)">
<path fill-rule="evenodd" clip-rule="evenodd" d="M101.01 26.991V30.2274L100.949 33.3082L104.209 26.991H106.033V36.467H104.225V33.028L104.272 30.2116L101.01 36.467H99.1875V26.991H101.01Z" fill="white"/>
</g>
<mask id="mask21_868_1090" style="mask-type:luminance" maskUnits="userSpaceOnUse" x="0" y="0" width="219" height="60">
<path d="M0.5 60H218.5V0H0.5V60Z" fill="white"/>
</mask>
<g mask="url(#mask21_868_1090)">
<path fill-rule="evenodd" clip-rule="evenodd" d="M114.785 36.467H112.854V32.4523H109.81V36.467H107.893V26.991H109.81V30.8032H112.854V26.991H114.785V36.467Z" fill="white"/>
</g>
<mask id="mask22_868_1090" style="mask-type:luminance" maskUnits="userSpaceOnUse" x="0" y="0" width="219" height="60">
<path d="M0.5 60H218.5V0H0.5V60Z" fill="white"/>
</mask>
<g mask="url(#mask22_868_1090)">
<path fill-rule="evenodd" clip-rule="evenodd" d="M118.86 33.0442H120.823L119.881 29.2159L118.86 33.0442ZM118.953 26.991H121.04L123.759 36.467H121.657L121.193 34.5848H118.443L117.933 36.467H116.002L118.953 26.991Z" fill="white"/>
</g>
</svg>
